<svg width="673" height="456" viewBox="0 0 673 456" fill="none" xmlns="http://www.w3.org/2000/svg">
<path fill-rule="evenodd" clip-rule="evenodd" d="M9.67981 202.466C12.2531 200.913 18.421 200.227 24.8791 203.078C40.9121 210.165 51.6568 218.326 61.2318 227.32C64.803 230.678 72.1048 230.977 77.0039 228.239C87.8045 222.213 97.3674 213.93 106.137 206.144C119.701 194.107 132.277 190.154 143.044 189.285C97.8937 211.973 89.3025 239.62 79.8132 273.187C71.0057 304.338 75.965 350.619 86.3092 378.747H43.1293C53.0643 348.966 56.2729 316.516 51.9183 281.858C47.3621 245.58 28.9129 212.967 9.67981 202.466V202.466Z" fill="white"/>
<path fill-rule="evenodd" clip-rule="evenodd" d="M70.2004 225.605C22.4363 201.043 19.161 157.783 31.5866 128.002C49.1688 85.856 95.2641 59.9431 72.819 12.0876C102.069 35.4565 138.443 71.5835 101.136 123.602C91.7652 136.67 81.1949 148.49 74.6369 158.139C61.2064 177.905 57.3936 194.022 70.2004 225.605Z" fill="url(#paint0_linear)"/>
<path d="M70.1959 225.633C22.4319 201.071 19.1572 157.811 31.5828 128.03C49.1648 85.8844 95.2603 59.9745 72.8152 12.1189C102.064 35.4872 138.439 71.6127 101.132 123.631C91.7612 136.697 81.1907 148.518 74.6324 158.168C61.2027 177.933 57.3893 194.05 70.1959 225.633Z" fill="url(#paint1_linear)"/>
<path fill-rule="evenodd" clip-rule="evenodd" d="M511.673 193.723C522.23 184.538 520.314 173.36 515.269 166.571C508.131 156.965 494.79 153.244 497.444 139.714C491.508 147.453 484.575 158.867 497.346 169.76C500.552 172.493 503.984 174.839 506.263 176.883C510.923 181.064 512.916 184.92 511.673 193.723V193.723Z" fill="url(#paint2_linear)"/>
<path fill-rule="evenodd" clip-rule="evenodd" d="M17.3064 154.374C11.0275 119.992 29.9297 92.4543 47.7075 64.2178L57.037 74.408C43.7555 94.1757 25.1001 116.848 17.3064 154.374ZM49.7929 60.3756C59.7744 41.462 65.9198 22.0848 57.1201 -1.55146e-05C79.1832 31.2068 73.0205 49.7409 59.3838 70.8514L49.7929 60.3756Z" fill="url(#paint3_linear)"/>
<path d="M17.3021 154.402C11.0237 120.021 29.9254 92.4865 47.704 64.2499L57.0337 74.4391C43.7517 94.2039 25.0955 116.876 17.3021 154.402ZM49.7879 60.4063C59.7696 41.4931 65.9158 22.1163 57.1159 0.0313898C79.1789 31.2381 73.0172 49.7721 59.3797 70.8794L49.7879 60.4063Z" fill="url(#paint4_linear)"/>
<path fill-rule="evenodd" clip-rule="evenodd" d="M520.569 172.38C519.977 163.27 513.431 157.451 507.126 151.386L505.407 154.549C510.033 158.743 516.207 163.341 520.569 172.38ZM506.355 150.541C502.62 146.359 499.827 141.823 500.658 135.675C497.043 144.959 499.783 149.279 504.586 153.79L506.355 150.541Z" fill="url(#paint5_linear)"/>
<path fill-rule="evenodd" clip-rule="evenodd" d="M13.7072 105.395C5.93893 126.352 -0.738821 148.335 0.0704335 170.474C0.822407 191.022 17.0609 199.859 28.5882 195.429C-3.43706 172.474 10.1583 137.418 13.7072 105.395Z" fill="url(#paint6_linear)"/>
<path d="M13.7031 105.422C5.93516 126.381 -0.743056 148.364 0.0667284 170.501C0.81875 191.05 17.0566 199.887 28.5847 195.458C-3.44122 172.502 10.1552 137.447 13.7031 105.422Z" fill="url(#paint7_linear)"/>
<path fill-rule="evenodd" clip-rule="evenodd" d="M127.492 55.8297C137.045 98.1242 123.908 123.033 101.036 143.564C74.4378 167.441 67.425 195.236 75.6816 225.862C89.2938 212.003 103.078 198.374 121.613 190.332C144.121 180.564 156.557 167.208 165.709 149.367C145.311 163.775 123.757 173.021 101.403 178.731C108.324 168.035 122.983 164.279 131.535 155.891C146.665 141.05 157.012 115.165 145.496 94.2599C144.873 100.679 142.908 105.633 139.617 109.123C140.628 88.1868 137.26 69.996 127.492 55.8297" fill="url(#paint8_linear)"/>
<path fill-rule="evenodd" clip-rule="evenodd" d="M518.368 159.731C521.67 164.568 524.762 169.731 525.965 175.398C527.08 180.657 523.522 183.907 520.314 183.493C526.982 175.689 521.305 167.637 518.368 159.731Z" fill="url(#paint9_linear)"/>
<path d="M127.487 55.8613C137.04 98.1527 123.904 123.062 101.031 143.592C74.4336 167.47 67.421 195.265 75.6777 225.89C89.2896 212.032 103.075 198.402 121.609 190.359C144.116 180.592 156.554 167.236 165.704 149.395C145.306 163.804 123.753 173.049 101.4 178.759C108.321 168.063 122.978 164.307 131.531 155.918C146.657 141.078 157.007 115.193 145.492 94.2916C144.868 100.706 142.904 105.661 139.613 109.151C140.624 88.2144 137.255 70.0279 127.487 55.8613V55.8613Z" fill="url(#paint10_linear)"/>
<path fill-rule="evenodd" clip-rule="evenodd" d="M486.35 154.195C486.615 165.515 491.53 171.023 498.637 174.816C506.903 179.228 510.448 185.848 510.3 194.128C505.964 191.453 501.603 188.85 496.389 187.955C490.057 186.867 486.055 184.249 482.597 180.287C488.69 182.683 494.746 183.696 500.778 183.761C498.345 181.475 494.387 181.431 491.685 179.83C486.902 177.001 482.631 171.073 484.225 165.058C484.792 166.646 485.604 167.783 486.662 168.464C485.075 163.216 484.773 158.391 486.35 154.195V154.195Z" fill="url(#paint11_linear)"/>
<path fill-rule="evenodd" clip-rule="evenodd" d="M156.828 123.993C150.484 140.739 142.769 155.696 130.161 164.273C151.68 162.812 156.385 145.452 156.828 123.993Z" fill="url(#paint12_linear)"/>
<path d="M156.825 124.022C150.48 140.767 142.765 155.723 130.158 164.3C151.673 162.84 156.381 145.48 156.825 124.022Z" fill="url(#paint13_linear)"/>
<path fill-rule="evenodd" clip-rule="evenodd" d="M483.239 173.301C485.913 177.159 488.82 180.474 492.563 181.872C487.012 182.832 484.717 178.719 483.239 173.301Z" fill="url(#paint14_linear)"/>
<path fill-rule="evenodd" clip-rule="evenodd" d="M491.855 190.931C492.563 190.502 494.26 190.316 496.036 191.099C500.451 193.05 503.407 195.295 506.043 197.772C507.025 198.695 509.034 198.779 510.384 198.024C513.357 196.365 515.987 194.087 518.402 191.944C522.133 188.632 525.598 187.542 528.561 187.302C516.394 195.874 513.562 203.668 511.156 210.394C508.193 218.677 507.995 231.707 509.589 239.448H501.061C504.022 231.473 505.01 222.647 503.48 212.78C501.937 202.836 497.147 193.82 491.855 190.931" fill="white"/>
<path fill-rule="evenodd" clip-rule="evenodd" d="M121.002 334.705L169.276 380.598L173.924 284.999H152.499L152.539 328.412L103.019 282.799L98.5979 377.958H119.877L121.002 334.705ZM319.479 334.705L367.752 380.598L372.4 284.999H350.975L351.013 328.412L301.496 282.799L297.075 377.958H318.355L319.479 334.705ZM242.453 281.65L264.198 296.005L220.537 384.316L180.926 297.149L203.597 282.122L222.522 334.591L242.453 281.65ZM282.351 366.183H263.685L271.207 316.886L290.085 315.509L282.351 366.183ZM283.12 283.594C290.607 283.594 296.716 289.618 296.716 297.007C296.716 304.397 290.607 310.421 283.12 310.421C275.631 310.421 269.523 304.397 269.523 297.007C269.523 289.618 275.631 283.594 283.12 283.594ZM295.485 294.729C295.624 295.468 295.698 296.229 295.698 297.007C295.698 303.845 290.049 309.42 283.12 309.42C278.526 309.42 274.493 306.959 272.297 303.316L295.485 294.729ZM419.382 295.524C401.208 298.246 387.98 311.431 382.208 326.352C378.764 335.246 379.967 349.497 384.891 356.77C392.682 368.273 404.584 371.129 424.959 369.426V350.435C418.459 350.282 409.698 351.323 404.719 347.379C398.474 342.429 400.374 329.359 405.959 323.696C410.956 318.629 417.801 316.276 423.101 315.326L419.382 295.524ZM489.345 284.076V378.153H508.241C522.099 378.153 537.988 371.47 543.498 364.486C549.836 356.453 556.234 335.02 532.206 327.586C559.997 309.942 543.406 284.076 512.158 284.076H489.345ZM511.928 299.339V323.484C516.043 322.316 521.834 320.468 523.181 311.661C524.539 302.767 518.109 300.107 511.928 299.339ZM511.928 336.694V361.753C516.739 360.538 523.506 358.621 525.077 349.481C526.667 340.251 519.151 337.493 511.928 336.694ZM567.693 377.47L614.018 379.29V354.461H591.891V284.306H567.693V377.47ZM672.938 379.268L626.918 377.013V284.306L671.413 282.545V304.413L649.27 304.803V321.208L668.17 320.067V341.935L649.27 341.705V356.514L672.938 356.487V379.268ZM451.711 232.101C463.531 232.101 473.173 241.614 473.173 253.272C473.173 264.936 463.531 274.448 451.711 274.448C439.894 274.448 430.253 264.936 430.253 253.272C430.253 241.614 439.894 232.101 451.711 232.101ZM471.228 249.678C471.447 250.843 471.567 252.049 471.567 253.272C471.567 264.067 462.65 272.864 451.711 272.864C444.46 272.864 438.096 268.987 434.629 263.23L471.228 249.678ZM461.418 374.403L471.287 388.235L483.738 382.573C487.815 380.722 490.639 385.128 487.897 388.628C484.307 393.202 479.259 396.629 474.153 399.474C472.61 400.331 470.113 400.462 468.837 399.244C467.24 397.719 468.482 394.662 467.222 392.85L454.365 374.381L443.716 392.879L452.126 391.372C457.161 390.468 460.175 395.386 454.98 397.762C448.238 400.839 440.296 405.079 434.651 404.724C428.999 404.374 429.953 399.086 432.207 396.557C433.467 395.146 434.55 394.43 434.979 393.798L445.3 373.807H436.185L439.251 282.06L462.351 279.496L461.418 374.403Z" fill="white"/>
<path fill-rule="evenodd" clip-rule="evenodd" d="M504.506 230.859L465.368 277.838V301.193L504.969 240.07L504.506 230.859Z" fill="white"/>
<path fill-rule="evenodd" clip-rule="evenodd" d="M50.8438 435.717C50.2456 435.615 49.6693 435.55 49.1249 435.506C48.5767 435.465 48.0508 435.441 47.5572 435.441C46.2721 435.441 45.2208 435.599 44.4076 435.925C43.5837 436.248 43.1733 436.637 43.1733 437.088C43.1733 437.637 43.6996 438.075 44.7423 438.408C45.7931 438.737 47.2131 438.902 49.0052 438.902C51.7254 438.902 53.9301 438.513 55.6175 437.727C57.3023 436.95 58.1495 435.947 58.1495 434.707C58.1495 433.514 56.5525 432.119 53.3564 430.535C52.862 430.283 52.4847 430.09 52.2297 429.97C50.451 429.054 49.115 428.019 48.2278 426.87C47.3363 425.717 46.8923 424.43 46.8923 423.014C46.8923 421.609 47.3742 420.171 48.3437 418.704C49.314 417.235 50.6241 415.958 52.2736 414.856C53.6312 413.957 55.0791 413.253 56.6257 412.743C58.1714 412.23 59.6134 411.972 60.9489 411.972C62.6299 411.972 63.974 412.361 64.9848 413.129C65.9995 413.908 66.5034 414.93 66.5034 416.21C66.5034 418.158 65.4254 419.926 63.266 421.509C61.1061 423.085 58.4044 424.014 55.1584 424.279L55.9482 420.445C57.932 419.926 59.513 419.317 60.6995 418.621C61.8865 417.929 62.4882 417.275 62.4882 416.67C62.4882 416.43 62.3404 416.223 62.0476 416.036C61.7582 415.855 61.4076 415.763 60.9928 415.763C60.3223 415.763 59.4811 415.914 58.4703 416.223C57.4574 416.534 56.4926 416.943 55.5675 417.447C54.1256 418.251 53.039 419.084 52.2956 419.953C51.5591 420.827 51.187 421.718 51.187 422.632C51.187 424.206 52.806 425.745 56.0361 427.248C56.9151 427.665 57.6111 427.997 58.1055 428.236C59.5031 428.953 60.5703 429.839 61.3103 430.895C62.0476 431.946 62.4223 433.12 62.4223 434.412C62.4223 436.966 61.1819 438.994 58.6938 440.491C56.2097 441.99 52.818 442.736 48.5168 442.736C45.4404 442.736 43.0355 442.24 41.3093 441.247C39.5805 440.262 38.7123 438.902 38.7123 437.169C38.7123 435.544 39.5719 434.208 41.2947 433.17C43.0221 432.126 45.2673 431.61 48.0443 431.61C48.5547 431.61 49.109 431.644 49.7072 431.719C50.3054 431.78 50.9454 431.89 51.6315 432.032L50.8438 435.717ZM354.921 436.748C354.851 436.922 354.795 437.088 354.76 437.267C354.722 437.442 354.707 437.615 354.707 437.786C354.707 437.954 354.722 438.075 354.751 438.137C354.782 438.211 354.823 438.247 354.877 438.247C355.154 438.247 355.882 437.873 357.078 437.133C358.041 436.531 359.039 435.825 360.076 435.018C360.406 432.782 361.348 430.781 362.9 429.026C364.871 426.803 367.15 425.688 369.748 425.688C371.329 425.688 372.627 426.126 373.646 427.006C374.663 427.881 375.171 428.967 375.171 430.256C375.171 430.83 375.054 431.299 374.828 431.66C374.603 432.017 374.27 432.29 373.823 432.471C374.027 432.638 374.172 432.853 374.274 433.104C374.378 433.356 374.418 433.667 374.418 434.03C374.418 434.241 374.394 434.459 374.34 434.674C374.282 434.887 374.195 435.133 374.078 435.397C374.15 435.416 374.23 435.428 374.326 435.434C374.418 435.441 374.522 435.441 374.639 435.441C375.076 435.441 375.967 434.894 377.309 433.803L377.353 433.781V437.528C376.783 438.06 376.244 438.448 375.741 438.677C375.227 438.908 374.683 439.022 374.078 439.022C373.953 439.022 373.795 439.01 373.596 438.983C373.407 438.951 373.07 438.902 372.583 438.815C371.912 440.051 370.986 441.015 369.806 441.701C368.625 442.39 367.327 442.736 365.898 442.736C364.024 442.736 362.56 442.219 361.511 441.191C360.843 440.527 360.384 439.696 360.145 438.703C358.451 439.895 356.911 440.843 355.509 441.542C353.92 442.341 352.704 442.736 351.867 442.736C351.193 442.736 350.676 442.583 350.305 442.272C349.933 441.965 349.751 441.526 349.751 440.964C349.751 440.641 349.807 440.269 349.918 439.836C350.034 439.411 350.223 438.823 350.501 438.084L351.334 435.888C350.588 436.565 349.94 437.124 349.38 437.568C348.81 438.025 348.302 438.398 347.827 438.693V435.024C349.578 433.549 350.982 432.333 352.05 431.377C353.11 430.429 353.675 429.861 353.747 429.697L355.926 424.409H352.55L353.659 421.603H357.011C358.01 418.316 358.891 416.005 359.65 414.669C360.416 413.339 361.206 412.668 362.012 412.668C362.466 412.668 362.831 412.836 363.092 413.166C363.353 413.498 363.485 413.951 363.485 414.526C363.485 415.204 362.982 416.704 361.968 419.056C361.502 420.122 361.136 420.97 360.885 421.603H364.018L362.931 424.409H359.767L354.921 436.748ZM369.616 437.212C369.317 436.857 369.106 436.521 368.974 436.205C368.849 435.878 368.785 435.544 368.785 435.189C368.785 434.263 369.056 433.486 369.594 432.853C370.133 432.219 370.841 431.861 371.71 431.774C371.455 430.861 371.124 430.193 370.725 429.774C370.331 429.349 369.806 429.14 369.163 429.14C367.967 429.14 366.829 429.882 365.736 431.365C364.651 432.843 364.105 434.437 364.105 436.14C364.105 437.068 364.307 437.786 364.717 438.298C365.12 438.807 365.686 439.065 366.418 439.065C366.984 439.065 367.55 438.902 368.131 438.569C368.713 438.239 369.201 437.786 369.616 437.212V437.212ZM388.191 438.239C388.7 438.414 389.101 438.528 389.388 438.593C389.671 438.656 389.926 438.687 390.159 438.687C391.85 438.687 393.49 437.928 395.081 436.413C396.67 434.894 398.207 432.601 399.709 429.544C400.905 427.112 401.888 424.588 402.675 421.964C403.457 419.345 403.85 417.555 403.85 416.583C403.85 416.3 403.79 416.073 403.667 415.899C403.541 415.719 403.389 415.635 403.21 415.635C402.342 415.635 401.293 416.633 400.059 418.633C398.827 420.64 397.852 423.123 397.12 426.087C396.356 426.705 395.585 427.198 394.803 427.58C394.028 427.962 393.43 428.149 393.025 428.149C392.863 428.149 392.763 428.09 392.704 427.984C392.644 427.869 392.615 427.665 392.615 427.372C392.615 426.046 392.885 424.545 393.418 422.861C393.95 421.171 394.687 419.544 395.628 417.972C396.821 415.949 398.185 414.368 399.716 413.225C401.249 412.082 402.741 411.506 404.205 411.506C405.491 411.506 406.488 411.885 407.204 412.656C407.909 413.418 408.268 414.482 408.268 415.843C408.268 416.605 408.129 417.642 407.862 418.956C407.59 420.264 407.204 421.755 406.705 423.408C406.079 425.416 405.329 427.385 404.454 429.323C403.582 431.255 402.596 433.11 401.495 434.894C399.776 437.653 397.958 439.671 396.05 440.973C394.139 442.272 392.032 442.921 389.727 442.921C388.927 442.921 388.203 442.838 387.558 442.654C386.916 442.484 386.296 442.203 385.713 441.831L388.191 438.239ZM406.262 438.693V435.024C407.931 433.642 409.309 432.465 410.412 431.473C411.504 430.488 412.093 429.89 412.182 429.697L413.311 427.248H417.285L414.055 433.99C417.307 431.408 419.821 429.571 421.615 428.493C423.406 427.407 424.802 426.87 425.784 426.87C426.222 426.87 426.608 426.99 426.943 427.236C427.28 427.478 427.446 427.773 427.446 428.112C427.446 428.379 427.258 428.91 426.87 429.718C426.738 429.998 426.644 430.222 426.574 430.386L423.627 436.748C423.526 436.982 423.406 437.227 423.271 437.491C423.139 437.759 423.063 437.901 423.063 437.907C423.063 438.066 423.089 438.18 423.123 438.261C423.161 438.339 423.211 438.377 423.284 438.377C423.539 438.377 424.304 437.987 425.583 437.205C426.848 436.425 428.155 435.49 429.497 434.412V434.424C430.825 433.346 432.028 432.235 433.12 431.092C434.402 429.731 435.561 428.302 436.582 426.782C436.682 425.208 436.975 424.014 437.463 423.201C437.944 422.389 438.603 421.976 439.425 421.976C440.01 421.976 440.466 422.156 440.803 422.523C441.137 422.89 441.307 423.402 441.307 424.064C441.307 424.551 441.197 425.027 440.986 425.487C440.773 425.94 440.432 426.409 439.963 426.882C440.029 428.013 440.089 428.936 440.123 429.644C440.162 430.364 440.174 430.989 440.174 431.523C440.174 433.086 440.061 434.401 439.83 435.469C439.607 436.543 439.236 437.513 438.723 438.367C439.683 437.889 440.628 437.326 441.575 436.677C442.315 436.179 443.084 435.605 443.88 434.961L443.893 434.953L443.927 434.924C445.741 433.39 447.283 432.036 448.537 430.861C449.827 429.659 450.514 428.947 450.599 428.723L451.197 427.248H454.399L453.181 430.874C454.523 429.51 455.735 428.516 456.811 427.891C457.898 427.263 458.941 426.956 459.95 426.956C461.163 426.956 462.171 427.342 462.965 428.112C463.76 428.892 464.158 429.861 464.158 431.041C464.158 432.17 463.796 433.433 463.058 434.853C462.328 436.276 461.336 437.606 460.086 438.858C460.981 438.579 462.067 438.044 463.346 437.267C464.366 436.637 465.421 435.898 466.506 435.049V435.024C468.169 433.651 469.555 432.465 470.648 431.473C471.75 430.488 472.338 429.89 472.42 429.697L473.556 427.248H477.524L473.17 436.748L472.637 437.916C472.637 438.066 472.655 438.18 472.681 438.261C472.707 438.339 472.747 438.377 472.807 438.377C473.09 438.377 473.875 437.987 475.153 437.218C476.18 436.593 477.219 435.876 478.274 435.049V435.024C479.795 433.828 481.058 432.723 482.049 431.719C483.05 430.702 483.777 429.786 484.232 428.975C483.916 428.522 483.689 428.127 483.558 427.795C483.419 427.456 483.353 427.133 483.353 426.825C483.353 426.105 483.566 425.518 483.989 425.058C484.404 424.588 484.936 424.359 485.579 424.359C486.293 424.359 486.838 424.596 487.225 425.061C487.604 425.536 487.839 426.248 487.902 427.204C487.991 427.204 488.12 427.198 488.29 427.187C488.929 427.139 489.376 427.12 489.615 427.12C490.872 427.12 491.782 427.291 492.349 427.64C492.919 427.984 493.202 428.522 493.202 429.27C493.202 429.581 493.139 429.939 493.013 430.364C492.884 430.787 492.702 431.255 492.453 431.774L490.038 436.748C489.974 436.895 489.887 437.059 489.785 437.261C489.587 437.653 489.486 437.873 489.486 437.907C489.486 438.066 489.503 438.18 489.543 438.261C489.569 438.339 489.631 438.377 489.704 438.377C489.974 438.377 490.74 437.987 492.008 437.218C493.161 436.509 494.339 435.677 495.554 434.707C495.982 432.896 496.955 431.287 498.467 429.874C500.58 427.897 503.06 426.913 505.888 426.913C507.302 426.913 508.382 427.204 509.138 427.795C509.89 428.385 510.272 429.227 510.272 430.321C510.272 432.023 509.329 433.543 507.451 434.873C505.567 436.211 503.054 437.109 499.89 437.568C499.946 438.075 500.179 438.475 500.58 438.764C500.989 439.054 501.537 439.197 502.213 439.197C503.382 439.197 504.773 438.786 506.392 437.975C508.011 437.159 509.758 435.965 511.654 434.406V438.205C509.475 439.824 507.579 440.973 505.961 441.657C504.352 442.347 502.777 442.691 501.25 442.691C499.304 442.691 497.825 442.21 496.813 441.241C496.108 440.564 495.651 439.671 495.438 438.556C493.659 439.821 492.046 440.816 490.585 441.548C488.995 442.341 487.787 442.736 486.942 442.736C486.088 442.736 485.434 442.549 484.965 442.175C484.505 441.809 484.272 441.275 484.272 440.585C484.272 439.886 484.766 438.579 485.768 436.665C485.901 436.413 485.994 436.226 486.064 436.096L488.377 431.65C488.479 431.436 488.545 431.262 488.589 431.135C488.633 430.998 488.655 430.883 488.655 430.787C488.655 430.584 488.595 430.451 488.473 430.37C488.349 430.303 488.12 430.256 487.779 430.256C487.703 430.256 487.576 430.271 487.386 430.293C487.188 430.314 487.043 430.321 486.942 430.321C485.73 432.011 484.419 433.537 483.003 434.894C481.807 436.053 480.491 437.137 479.061 438.15V438.211C477.012 439.706 475.197 440.843 473.614 441.598C472.033 442.353 470.719 442.736 469.662 442.736C469.038 442.736 468.547 442.592 468.191 442.303C467.836 442.018 467.659 441.635 467.659 441.154C467.659 440.822 467.716 440.405 467.826 439.901C467.945 439.405 468.103 438.895 468.302 438.377L468.877 436.922C468.446 437.293 468.037 437.621 467.653 437.916L467.303 438.172V438.205C465.346 439.644 463.723 440.672 462.411 441.296C461.101 441.921 459.933 442.232 458.912 442.232C458.626 442.232 458.276 442.203 457.876 442.144C457.466 442.089 457.045 442.024 456.598 441.937C455.975 442.219 455.442 442.418 454.996 442.549C454.557 442.669 454.152 442.736 453.779 442.736C453.055 442.736 452.41 442.484 451.84 441.99C451.271 441.489 450.987 440.905 450.987 440.247C450.987 439.917 451.066 439.679 451.229 439.541C451.393 439.411 451.686 439.339 452.116 439.339C452.234 439.339 452.432 439.362 452.715 439.405C452.999 439.449 453.225 439.47 453.402 439.47C453.984 439.47 454.557 439.268 455.127 438.874C455.697 438.469 456.375 437.78 457.155 436.795C458.081 435.615 458.786 434.564 459.268 433.651C459.757 432.738 459.998 432.017 459.998 431.486C459.998 431.206 459.889 430.968 459.671 430.781C459.444 430.584 459.195 430.494 458.912 430.494C457.911 430.494 456.397 431.507 454.369 433.537C452.344 435.571 450.792 437.808 449.727 440.247C449.185 441.424 448.669 442.736 448.188 444.158C447.706 445.584 447.255 447.088 446.84 448.656C446.729 449.079 446.579 449.663 446.396 450.408C445.608 453.524 444.667 455.084 443.552 455.084C443.056 455.084 442.643 454.892 442.306 454.497C441.972 454.099 441.802 453.609 441.802 453.021C441.802 451.884 442.34 449.775 443.415 446.7C444.491 443.621 446.021 439.815 448.021 435.276C447.189 436.075 446.424 436.764 445.726 437.332C445.18 437.767 444.683 438.137 444.22 438.436L444.216 438.438L444.191 438.454C442.512 439.631 440.979 440.511 439.599 441.089C438.116 441.707 436.734 442.018 435.452 442.018H435.175C434.766 442.24 434.351 442.403 433.934 442.498C433.525 442.595 433.043 442.648 432.505 442.648C431.639 442.648 430.965 442.433 430.499 442.008C430.034 441.579 429.795 440.952 429.795 440.138C429.795 439.744 429.867 439.492 429.996 439.37C430.137 439.246 430.421 439.191 430.864 439.191C431.135 439.191 431.545 439.24 432.084 439.346C432.622 439.455 433.025 439.504 433.298 439.504C434.291 439.504 435.065 438.858 435.603 437.568C436.142 436.276 436.412 434.428 436.412 432.023V431.523C435.605 432.76 434.592 433.946 433.376 435.083C432.321 436.065 431.03 437.094 429.497 438.172V438.211C427.446 439.693 425.629 440.822 424.05 441.585C422.469 442.353 421.161 442.736 420.12 442.736C419.492 442.736 418.992 442.592 418.605 442.309C418.218 442.03 418.028 441.663 418.028 441.197C418.028 440.902 418.088 440.57 418.196 440.212C418.312 439.842 418.533 439.311 418.86 438.606L421.659 432.518C419.137 434.297 416.417 436.462 413.479 439.004C410.551 441.548 408.727 442.822 408.019 442.822C407.676 442.822 407.377 442.669 407.131 442.374C406.882 442.079 406.759 441.729 406.759 441.328C406.759 441.154 406.787 440.964 406.847 440.759C406.894 440.548 406.986 440.312 407.1 440.057L408.639 436.922C408.208 437.293 407.802 437.615 407.407 437.907C407.014 438.205 406.633 438.469 406.262 438.693ZM477.1 424.694C476.429 424.694 475.912 424.523 475.553 424.179C475.192 423.831 475.006 423.352 475.006 422.719C475.006 421.861 475.27 421.15 475.786 420.587C476.303 420.028 476.96 419.749 477.764 419.749C478.406 419.749 478.895 419.913 479.244 420.252C479.593 420.587 479.766 421.062 479.766 421.681C479.766 422.55 479.511 423.272 479.011 423.84C478.508 424.409 477.865 424.694 477.1 424.694V424.694ZM499.759 434.537C501.653 434.269 503.196 433.797 504.396 433.104C505.589 432.414 506.188 431.7 506.188 430.954C506.188 430.643 506.078 430.399 505.866 430.212C505.655 430.02 505.372 429.926 505.013 429.926C504.163 429.926 503.196 430.37 502.136 431.262C501.065 432.154 500.275 433.24 499.759 434.537ZM544.118 433.086C540.903 436.637 538.271 439.116 536.237 440.535C534.202 441.943 532.294 442.648 530.515 442.648C529.63 442.648 528.941 442.433 528.45 441.992C527.961 441.564 527.713 440.946 527.713 440.138C527.713 439.734 527.789 439.268 527.925 438.737C528.072 438.211 528.276 437.637 528.547 437.003L535.893 420.525C536.265 419.684 536.529 419.015 536.672 418.531C536.828 418.043 536.901 417.655 536.901 417.36C536.901 416.927 536.804 416.62 536.624 416.43C536.441 416.251 536.126 416.158 535.683 416.158C534.385 416.158 533.101 417.092 531.841 418.963C530.572 420.833 529.64 423.262 529.041 426.256L525.71 428.236C525.522 428.336 525.373 428.406 525.257 428.457C525.15 428.507 525.062 428.538 525.002 428.552C524.914 428.552 524.85 428.487 524.79 428.351C524.734 428.221 524.703 428.044 524.703 427.81C524.703 426.941 524.936 425.667 525.399 423.992C525.865 422.308 526.441 420.762 527.139 419.345C528.276 417.052 529.675 415.275 531.337 414.002C532.993 412.727 534.734 412.094 536.558 412.094C538.038 412.094 539.218 412.47 540.094 413.209C540.969 413.957 541.408 414.964 541.408 416.245C541.408 416.878 541.231 417.742 540.875 418.829C540.516 419.913 539.968 421.265 539.224 422.883L532.65 437.234C532.549 437.442 532.467 437.653 532.401 437.851C532.335 438.06 532.307 438.19 532.307 438.247C532.324 438.312 532.346 438.364 532.373 438.383C532.403 438.408 532.451 438.42 532.519 438.436C533.009 438.436 533.613 438.211 534.335 437.771C535.063 437.326 536.098 436.549 537.434 435.441C539.48 433.732 541.354 431.952 543.054 430.112C544.745 428.271 546.152 426.493 547.282 424.785C548.419 423.029 549.417 421.2 550.271 419.302C550.394 419.022 550.472 418.848 550.504 418.798C550.636 418.556 550.825 418.382 551.092 418.263C551.357 418.158 551.713 418.102 552.166 418.102H553.215C553.574 418.102 553.863 418.18 554.091 418.344C554.316 418.503 554.434 418.711 554.434 418.963C554.434 419.186 554.33 419.599 554.129 420.187C553.914 420.777 553.63 421.482 553.259 422.293L545.122 440.454C543.256 444.64 541.561 447.864 540.028 450.107C538.497 452.36 537.235 453.481 536.237 453.481C535.711 453.481 535.266 453.357 534.902 453.121C534.536 452.885 534.353 452.574 534.353 452.192C534.353 451.9 534.927 450.841 536.054 449.013C537.185 447.186 538.138 445.475 538.904 443.871L544.118 433.086ZM560.709 437.212C560.41 436.857 560.198 436.521 560.066 436.205C559.943 435.878 559.877 435.544 559.877 435.189C559.877 434.263 560.148 433.486 560.687 432.853C561.225 432.219 561.933 431.861 562.803 431.774C562.547 430.861 562.218 430.193 561.817 429.774C561.424 429.349 560.898 429.14 560.256 429.14C559.062 429.14 557.925 429.882 556.83 431.365C555.744 432.843 555.198 434.437 555.198 436.14C555.198 437.068 555.403 437.786 555.81 438.298C556.212 438.807 556.779 439.065 557.51 439.065C558.077 439.065 558.647 438.902 559.223 438.569C559.805 438.239 560.296 437.786 560.709 437.212V437.212ZM565.171 435.397C565.243 435.416 565.325 435.428 565.42 435.434C565.514 435.441 565.618 435.441 565.731 435.441C566.043 435.441 566.587 435.164 567.359 434.607C568.804 433.403 570.014 432.362 571.005 431.473C572.098 430.488 572.686 429.89 572.776 429.697L573.905 427.248H577.832L572.986 437.088C572.919 437.227 572.863 437.364 572.826 437.479C572.791 437.599 572.776 437.702 572.776 437.786C572.776 437.836 572.788 437.879 572.819 437.907C572.845 437.938 572.891 437.954 572.941 437.954C573.685 437.954 575.282 436.917 577.731 434.844C580.181 432.772 582.58 430.243 584.926 427.248H588.767L584.221 436.748C584.123 436.976 584.007 437.227 583.868 437.491C583.73 437.759 583.663 437.895 583.663 437.907C583.663 438.066 583.684 438.18 583.717 438.261C583.751 438.339 583.812 438.377 583.878 438.377C584.139 438.377 584.904 437.987 586.173 437.205C587.451 436.425 588.755 435.49 590.097 434.412V434.428C591.287 433.458 592.298 432.551 593.122 431.719C594.121 430.702 594.851 429.786 595.301 428.975C594.986 428.522 594.763 428.127 594.631 427.795C594.492 427.456 594.426 427.133 594.426 426.825C594.426 426.105 594.637 425.518 595.062 425.058C595.478 424.588 596.007 424.359 596.649 424.359C597.363 424.359 597.911 424.596 598.298 425.061C598.677 425.536 598.91 426.248 598.976 427.204C599.064 427.204 599.193 427.198 599.36 427.187C600.002 427.139 600.447 427.12 600.689 427.12C601.942 427.12 602.852 427.291 603.422 427.64C603.988 427.984 604.276 428.522 604.276 429.27C604.276 429.581 604.209 429.939 604.086 430.364C603.954 430.787 603.771 431.255 603.522 431.774L601.111 436.748C601.048 436.895 600.96 437.059 600.856 437.261C600.657 437.653 600.557 437.873 600.557 437.907C600.557 438.066 600.578 438.18 600.617 438.261C600.647 438.339 600.701 438.377 600.774 438.377C601.048 438.377 601.81 437.987 603.079 437.218C604.348 436.441 605.645 435.506 606.986 434.412V434.422C608.312 433.34 609.515 432.231 610.604 431.092C611.886 429.731 613.045 428.302 614.066 426.782C614.169 425.208 614.461 424.014 614.947 423.201C615.428 422.389 616.086 421.976 616.909 421.976C617.493 421.976 617.95 422.156 618.287 422.523C618.621 422.89 618.791 423.402 618.791 424.064C618.791 424.551 618.681 425.027 618.47 425.487C618.255 425.94 617.916 426.409 617.449 426.882C617.515 428.013 617.573 428.936 617.607 429.644C617.646 430.364 617.657 430.989 617.657 431.523C617.657 433.086 617.541 434.401 617.318 435.469C617.091 436.543 616.719 437.513 616.209 438.367C617.166 437.889 618.111 437.326 619.062 436.677C619.896 436.114 620.769 435.453 621.678 434.707C622.107 432.896 623.08 431.287 624.594 429.874C626.707 427.897 629.186 426.913 632.013 426.913C633.43 426.913 634.507 427.204 635.265 427.795C636.015 428.385 636.396 429.227 636.396 430.321C636.396 432.023 635.455 433.543 633.574 434.873C631.694 436.211 629.179 437.109 626.015 437.568C626.071 438.075 626.307 438.475 626.707 438.764C627.114 439.054 627.661 439.197 628.342 439.197C629.506 439.197 630.898 438.786 632.517 437.975C633.909 437.273 635.395 436.295 636.984 435.046V435.018C638.049 434.149 639.019 433.328 639.879 432.567C640.741 431.796 641.5 431.076 642.156 430.407L647.448 415.468C648.002 413.92 648.528 412.827 649.007 412.19C649.488 411.547 650.036 411.233 650.634 411.233C651.069 411.233 651.418 411.432 651.667 411.83C651.916 412.23 652.039 412.798 652.039 413.526C652.039 415.029 651.605 416.927 650.736 419.229C649.867 421.523 648.455 424.508 646.485 428.192L643.607 436.785C643.59 436.814 643.577 436.844 643.56 436.873C643.412 437.32 643.326 437.664 643.326 437.901C643.326 438.075 643.343 438.18 643.38 438.239C643.415 438.298 643.474 438.327 643.54 438.327C643.779 438.327 644.511 437.944 645.719 437.177C646.69 436.565 647.703 435.85 648.752 435.034V435.024C649.917 434.082 650.991 433.175 651.96 432.306C652.923 431.436 653.824 430.572 654.672 429.718L659.86 414.986C660.43 413.426 660.95 412.34 661.429 411.728C661.904 411.114 662.452 410.813 663.062 410.813C663.485 410.813 663.838 410.988 664.105 411.338C664.376 411.693 664.514 412.159 664.514 412.755C664.514 414.045 664.033 416.036 663.07 418.727C662.115 421.417 660.651 424.891 658.68 429.15L651.299 449.986C651.252 450.135 651.224 450.265 651.202 450.375C651.181 450.483 651.163 450.554 651.163 450.595C651.163 450.731 651.216 450.863 651.317 450.987C651.411 451.107 651.522 451.164 651.638 451.164C652.376 451.164 653.279 449.899 654.336 447.377C655.401 444.841 656.134 441.865 656.553 438.442C658.244 437.397 659.542 436.578 660.436 435.974C661.333 435.369 662.02 434.853 662.485 434.412V438.205C661.727 438.749 661.028 439.24 660.379 439.671C659.737 440.094 659.227 440.421 658.856 440.625C658.856 444.53 657.973 447.898 656.216 450.719C654.459 453.546 652.542 454.957 650.457 454.957C649.544 454.957 648.833 454.668 648.313 454.099C647.796 453.53 647.535 452.732 647.535 451.71C647.535 451.207 647.636 450.527 647.848 449.669C648.051 448.811 648.335 447.855 648.707 446.805L652.47 435.888C651.682 436.534 650.996 437.088 650.398 437.544C650.101 437.767 649.812 437.979 649.538 438.172V438.196C647.517 439.693 645.762 440.794 644.267 441.52C642.775 442.244 641.527 442.604 640.53 442.604C639.96 442.604 639.515 442.439 639.204 442.101C638.889 441.766 638.734 441.284 638.734 440.663C638.734 440.306 638.768 439.917 638.851 439.52C638.929 439.116 639.04 438.749 639.188 438.414L640.016 436.394C639.478 436.852 638.956 437.277 638.452 437.653C638.226 437.82 637.999 437.981 637.778 438.14V438.205C635.602 439.824 633.704 440.973 632.088 441.657C630.476 442.347 628.902 442.691 627.378 442.691C625.431 442.691 623.951 442.21 622.939 441.241C622.229 440.56 621.773 439.659 621.559 438.538C619.924 439.675 618.432 440.527 617.085 441.089C615.601 441.707 614.219 442.018 612.935 442.018H612.66C612.251 442.24 611.835 442.403 611.42 442.498C611.011 442.595 610.532 442.648 609.99 442.648C609.121 442.648 608.453 442.433 607.988 442.008C607.518 441.579 607.279 440.952 607.279 440.138C607.279 439.744 607.352 439.492 607.484 439.37C607.622 439.246 607.906 439.191 608.35 439.191C608.62 439.191 609.03 439.24 609.568 439.346C610.106 439.455 610.51 439.504 610.788 439.504C611.779 439.504 612.55 438.858 613.089 437.568C613.627 436.276 613.898 434.428 613.898 432.023V431.523C613.089 432.76 612.074 433.946 610.86 435.083C609.807 436.061 608.521 437.09 606.986 438.168V438.211C605.018 439.644 603.245 440.749 601.658 441.548C600.068 442.341 598.86 442.736 598.013 442.736C597.159 442.736 596.504 442.549 596.038 442.175C595.578 441.809 595.345 441.275 595.345 440.585C595.345 439.886 595.839 438.579 596.838 436.665C596.97 436.413 597.064 436.226 597.137 436.096L599.448 431.65C599.552 431.436 599.616 431.262 599.662 431.135C599.705 430.998 599.726 430.883 599.726 430.787C599.726 430.584 599.668 430.451 599.543 430.37C599.42 430.303 599.193 430.256 598.85 430.256C598.781 430.256 598.649 430.271 598.456 430.293C598.258 430.314 598.113 430.321 598.013 430.321C596.803 432.011 595.49 433.537 594.077 434.894C592.867 436.061 591.539 437.155 590.097 438.178V438.205C588.107 439.679 586.296 440.808 584.693 441.579C583.084 442.347 581.74 442.736 580.678 442.736C580.093 442.736 579.627 442.595 579.278 442.325C578.927 442.051 578.752 441.691 578.752 441.241C578.752 440.986 578.818 440.613 578.949 440.122C579.073 439.634 579.248 439.124 579.46 438.606L580.785 435.363C578.606 437.566 576.434 439.346 574.277 440.7C572.12 442.057 570.463 442.736 569.311 442.736C568.814 442.736 568.436 442.592 568.19 442.309C567.941 442.03 567.815 441.598 567.815 441.007C567.815 440.771 567.837 440.527 567.889 440.285C567.941 440.039 568.02 439.771 568.14 439.492L569.223 436.917C568.848 437.242 568.483 437.54 568.13 437.808L568.128 437.81C567.765 438.121 567.416 438.371 567.081 438.55L567.073 438.556L567.064 438.563L566.855 438.693V438.668L566.833 438.677C566.323 438.908 565.774 439.022 565.17 439.022C565.044 439.022 564.887 439.01 564.688 438.983C564.499 438.951 564.165 438.902 563.675 438.815C563.003 440.051 562.078 441.015 560.897 441.701C559.717 442.39 558.419 442.736 556.993 442.736C555.115 442.736 553.651 442.219 552.603 441.191C551.558 440.153 551.035 438.715 551.035 436.879C551.035 433.875 552.02 431.255 553.995 429.026C555.963 426.803 558.246 425.688 560.84 425.688C562.421 425.688 563.719 426.126 564.738 427.006C565.752 427.881 566.263 428.967 566.263 430.256C566.263 430.83 566.146 431.299 565.922 431.66C565.696 432.017 565.362 432.29 564.915 432.471C565.12 432.638 565.264 432.853 565.368 433.104C565.469 433.356 565.513 433.667 565.513 434.03C565.513 434.241 565.483 434.459 565.432 434.674C565.374 434.887 565.286 435.133 565.17 435.397H565.171ZM625.882 434.537C627.778 434.269 629.327 433.797 630.52 433.104C631.714 432.414 632.316 431.7 632.316 430.954C632.316 430.643 632.205 430.399 631.991 430.212C631.78 430.02 631.497 429.926 631.137 429.926C630.288 429.926 629.327 430.37 628.26 431.262C627.189 432.154 626.402 433.24 625.882 434.537V434.537ZM64.8724 438.693V435.024C66.54 433.642 67.9174 432.465 69.0186 431.473C70.1113 430.488 70.703 429.89 70.7887 429.697L71.9193 427.248H75.8488L71.0024 437.088C70.9365 437.227 70.8766 437.364 70.8426 437.479C70.8047 437.599 70.7887 437.702 70.7887 437.786C70.7887 437.836 70.8047 437.879 70.8327 437.907C70.8607 437.938 70.9046 437.954 70.9584 437.954C71.7018 437.954 73.2975 436.917 75.7442 434.844C78.1943 432.772 80.5932 430.243 82.9435 427.248H86.7839L82.2342 436.748C82.1398 436.976 82.0227 437.227 81.8849 437.491C81.7458 437.759 81.6799 437.895 81.6799 437.907C81.6799 438.066 81.7018 438.18 81.7311 438.261C81.7677 438.339 81.825 438.377 81.8909 438.377C82.1558 438.377 82.9176 437.987 84.1899 437.205C85.4643 436.425 86.7684 435.49 88.11 434.412V434.428C89.3025 433.458 90.3112 432.551 91.1364 431.719C92.1373 430.702 92.8652 429.786 93.3144 428.975C92.9995 428.522 92.776 428.127 92.6477 427.795C92.5085 427.456 92.4427 427.133 92.4427 426.825C92.4427 426.105 92.6537 425.518 93.0727 425.058C93.4914 424.588 94.0237 424.359 94.6658 424.359C95.3799 424.359 95.9256 424.596 96.3128 425.061C96.6901 425.536 96.9231 426.248 96.9889 427.204C97.0781 427.204 97.2064 427.198 97.3774 427.187C98.0196 427.139 98.4628 427.12 98.7018 427.12C99.9581 427.12 100.869 427.291 101.435 427.64C102.006 427.984 102.292 428.522 102.292 429.27C102.292 429.581 102.225 429.939 102.099 430.364C101.971 430.787 101.788 431.255 101.539 431.774L99.1243 436.748C99.0584 436.895 98.9727 437.059 98.8693 437.261C98.6738 437.653 98.5739 437.873 98.5739 437.907C98.5739 438.066 98.592 438.18 98.6299 438.261C98.6578 438.339 98.7177 438.377 98.7909 438.377C99.0584 438.377 99.8263 437.987 101.092 437.218C102.203 436.537 103.337 435.739 104.5 434.816L104.512 434.806C106.266 433.319 107.762 432.004 108.98 430.861C110.274 429.659 110.958 428.947 111.046 428.723L111.644 427.248H114.843L113.628 430.874C114.966 429.51 116.178 428.516 117.259 427.891C118.344 427.263 119.387 426.956 120.397 426.956C121.609 426.956 122.614 427.342 123.411 428.112C124.204 428.892 124.604 429.861 124.604 431.041C124.604 432.17 124.239 433.433 123.506 434.853C122.774 436.276 121.783 437.606 120.529 438.858C121.426 438.579 122.513 438.044 123.789 437.267C124.808 436.637 125.863 435.898 126.953 435.049V435.024C128.475 433.828 129.737 432.723 130.728 431.719C131.727 430.702 132.457 429.786 132.907 428.975C132.592 428.522 132.369 428.127 132.237 427.795C132.098 427.456 132.032 427.133 132.032 426.825C132.032 426.105 132.243 425.518 132.668 425.058C133.084 424.588 133.615 424.359 134.255 424.359C134.971 424.359 135.517 424.596 135.906 425.061C136.283 425.536 136.516 426.248 136.582 427.204C136.67 427.204 136.803 427.198 136.969 427.187C137.611 427.139 138.053 427.12 138.295 427.12C139.549 427.12 140.458 427.291 141.028 427.64C141.598 427.984 141.882 428.522 141.882 429.27C141.882 429.581 141.816 429.939 141.692 430.364C141.56 430.787 141.381 431.255 141.128 431.774L138.717 436.748C138.654 436.895 138.566 437.059 138.465 437.261C138.267 437.653 138.163 437.873 138.163 437.907C138.163 438.066 138.185 438.18 138.223 438.261C138.251 438.339 138.307 438.377 138.383 438.377C138.654 438.377 139.416 437.987 140.685 437.218C141.824 436.519 142.99 435.695 144.183 434.741C145.694 433.486 146.966 432.392 147.983 431.473C149.086 430.488 149.674 429.89 149.756 429.697L150.894 427.248H154.858L150.506 436.748L149.977 437.916C149.977 438.066 149.989 438.18 150.017 438.261C150.047 438.339 150.084 438.377 150.14 438.377C150.427 438.377 151.215 437.987 152.489 437.218C153.516 436.593 154.555 435.876 155.61 435.049V435.018C157.235 433.75 158.687 432.443 159.977 431.092C161.259 429.731 162.417 428.302 163.438 426.782C163.539 425.208 163.834 424.014 164.319 423.201C164.801 422.389 165.456 421.976 166.281 421.976C166.867 421.976 167.324 422.156 167.661 422.523C167.994 422.89 168.161 423.402 168.161 424.064C168.161 424.551 168.054 425.027 167.843 425.487C167.631 425.94 167.289 426.409 166.823 426.882C166.885 428.013 166.945 428.936 166.981 429.644C167.019 430.364 167.031 430.989 167.031 431.523C167.031 433.086 166.917 434.401 166.688 435.469C166.464 436.543 166.092 437.513 165.582 438.367C166.54 437.889 167.484 437.326 168.432 436.677C169.27 436.114 170.141 435.453 171.048 434.707C171.48 432.896 172.452 431.287 173.968 429.874C176.08 427.897 178.558 426.913 181.385 426.913C182.803 426.913 183.879 427.204 184.639 427.795C185.388 428.385 185.769 429.227 185.769 430.321C185.769 432.023 184.827 433.543 182.948 434.873C181.068 436.211 178.552 437.109 175.388 437.568C175.444 438.075 175.677 438.475 176.08 438.764C176.49 439.054 177.035 439.197 177.714 439.197C178.879 439.197 180.271 438.786 181.89 437.975C183.511 437.159 185.259 435.965 187.151 434.406V438.205C184.976 439.824 183.08 440.973 181.461 441.657C179.849 442.347 178.275 442.691 176.751 442.691C174.805 442.691 173.325 442.21 172.311 441.241C171.603 440.56 171.143 439.659 170.931 438.538C169.3 439.675 167.805 440.527 166.457 441.089C164.978 441.707 163.592 442.018 162.307 442.018H162.034C161.624 442.24 161.209 442.403 160.792 442.498C160.383 442.595 159.902 442.648 159.364 442.648C158.497 442.648 157.827 442.433 157.36 442.008C156.894 441.579 156.652 440.952 156.652 440.138C156.652 439.744 156.724 439.492 156.857 439.37C156.996 439.246 157.279 439.191 157.723 439.191C157.994 439.191 158.403 439.24 158.941 439.346C159.48 439.455 159.88 439.504 160.16 439.504C161.153 439.504 161.923 438.858 162.461 437.568C163.003 436.276 163.271 434.428 163.271 432.023V431.523C162.461 432.76 161.448 433.946 160.232 435.083C159.19 436.053 157.913 437.072 156.397 438.14V438.211C154.347 439.706 152.533 440.843 150.95 441.598C149.369 442.353 148.059 442.736 147.002 442.736C146.372 442.736 145.884 442.592 145.528 442.303C145.172 442.018 144.996 441.635 144.996 441.154C144.996 440.822 145.056 440.405 145.162 439.901C145.279 439.405 145.439 438.895 145.638 438.377L146.21 436.922C145.782 437.293 145.377 437.621 144.99 437.916L144.593 438.202V438.211C142.625 439.644 140.851 440.749 139.265 441.548C137.675 442.341 136.466 442.736 135.619 442.736C134.768 442.736 134.11 442.549 133.644 442.175C133.184 441.809 132.951 441.275 132.951 440.585C132.951 439.886 133.449 438.579 134.447 436.665C134.576 436.413 134.674 436.226 134.744 436.096L137.058 431.65C137.158 431.436 137.222 431.262 137.268 431.135C137.31 430.998 137.332 430.883 137.332 430.787C137.332 430.584 137.274 430.451 137.152 430.37C137.026 430.303 136.803 430.256 136.459 430.256C136.387 430.256 136.255 430.271 136.066 430.293C135.868 430.314 135.722 430.321 135.619 430.321C134.409 432.011 133.097 433.537 131.683 434.894C130.486 436.049 129.173 437.133 127.747 438.143V438.205C125.795 439.644 124.166 440.672 122.854 441.296C121.544 441.921 120.379 442.232 119.358 442.232C119.071 442.232 118.723 442.203 118.322 442.144C117.913 442.089 117.49 442.024 117.047 441.937C116.418 442.219 115.885 442.418 115.441 442.549C115.004 442.669 114.597 442.736 114.222 442.736C113.502 442.736 112.853 442.484 112.283 441.99C111.716 441.489 111.429 440.905 111.429 440.247C111.429 439.917 111.512 439.679 111.672 439.541C111.842 439.411 112.132 439.339 112.563 439.339C112.677 439.339 112.875 439.362 113.162 439.405C113.445 439.449 113.668 439.47 113.845 439.47C114.427 439.47 115.004 439.268 115.57 438.874C116.14 438.469 116.817 437.78 117.598 436.795C118.524 435.615 119.232 434.564 119.714 433.651C120.202 432.738 120.441 432.017 120.441 431.486C120.441 431.206 120.332 430.968 120.114 430.781C119.891 430.584 119.642 430.494 119.358 430.494C118.357 430.494 116.842 431.507 114.815 433.537C112.787 435.571 111.235 437.808 110.17 440.247C109.632 441.424 109.112 442.736 108.633 444.158C108.152 445.584 107.702 447.088 107.283 448.656C107.175 449.079 107.022 449.663 106.839 450.408C106.051 453.524 105.11 455.084 103.995 455.084C103.501 455.084 103.086 454.892 102.749 454.497C102.414 454.099 102.248 453.609 102.248 453.021C102.248 451.884 102.787 449.775 103.857 446.7C104.937 443.621 106.467 439.815 108.464 435.276C107.636 436.075 106.867 436.764 106.169 437.332C105.756 437.664 105.369 437.96 105 438.211C103.032 439.644 101.262 440.749 99.6725 441.548C98.0816 442.341 96.8731 442.736 96.0294 442.736C95.1762 442.736 94.5181 442.549 94.0517 442.175C93.5913 441.809 93.3583 441.275 93.3583 440.585C93.3583 439.886 93.8527 438.579 94.8515 436.665C94.9833 436.413 95.081 436.226 95.1504 436.096L97.4653 431.65C97.5652 431.436 97.6311 431.262 97.6763 431.135C97.7168 430.998 97.7388 430.883 97.7388 430.787C97.7388 430.584 97.6823 430.451 97.5592 430.37C97.4334 430.303 97.2064 430.256 96.8671 430.256C96.7938 430.256 96.6621 430.271 96.4726 430.293C96.2749 430.314 96.1297 430.321 96.0294 430.321C94.817 432.011 93.5073 433.537 92.0899 434.894C90.8836 436.061 89.5553 437.155 88.11 438.178V438.205C86.1224 439.679 84.3118 440.808 82.7101 441.579C81.0976 442.347 79.7556 442.736 78.6922 442.736C78.1086 442.736 77.6435 442.595 77.2908 442.325C76.9415 442.051 76.7683 441.691 76.7683 441.241C76.7683 440.986 76.8308 440.613 76.9639 440.122C77.0858 439.634 77.2628 439.124 77.473 438.606L78.802 435.363C76.6193 437.566 74.4474 439.346 72.2901 440.7C70.1332 442.057 68.4777 442.736 67.3278 442.736C66.8308 442.736 66.4522 442.592 66.2045 442.309C65.9556 442.03 65.832 441.598 65.832 441.007C65.832 440.771 65.854 440.527 65.9039 440.285C65.9556 440.039 66.037 439.771 66.1533 439.492L67.2399 436.917C66.8148 437.283 66.4083 437.615 66.015 437.907C65.621 438.205 65.2398 438.469 64.8724 438.693ZM154.435 424.694C153.765 424.694 153.249 424.523 152.89 424.179C152.527 423.831 152.346 423.352 152.346 422.719C152.346 421.861 152.607 421.15 153.126 420.587C153.642 420.028 154.297 419.749 155.099 419.749C155.739 419.749 156.228 419.913 156.58 420.252C156.93 420.587 157.103 421.062 157.103 421.681C157.103 422.55 156.85 423.272 156.347 423.84C155.843 424.409 155.201 424.694 154.435 424.694V424.694ZM175.255 434.537C177.154 434.269 178.697 433.797 179.893 433.104C181.086 432.414 181.688 431.7 181.688 430.954C181.688 430.643 181.578 430.399 181.363 430.212C181.154 430.02 180.869 429.926 180.51 429.926C179.66 429.926 178.697 430.37 177.633 431.262C176.562 432.154 175.774 433.24 175.255 434.537V434.537ZM219.614 433.086C216.4 436.637 213.768 439.116 211.734 440.535C209.703 441.943 207.792 442.648 206.012 442.648C205.131 442.648 204.438 442.433 203.95 441.992C203.462 441.564 203.213 440.946 203.213 440.138C203.213 439.734 203.286 439.268 203.424 438.737C203.569 438.211 203.773 437.637 204.044 437.003L211.391 420.525C211.765 419.684 212.027 419.015 212.171 418.531C212.326 418.043 212.398 417.655 212.398 417.36C212.398 416.927 212.304 416.62 212.121 416.43C211.938 416.251 211.627 416.158 211.182 416.158C209.882 416.158 208.6 417.092 207.338 418.963C206.072 420.833 205.14 423.262 204.542 426.256L201.211 428.236C201.019 428.336 200.87 428.406 200.757 428.457C200.646 428.507 200.558 428.538 200.502 428.552C200.413 428.552 200.347 428.487 200.291 428.351C200.232 428.221 200.203 428.044 200.203 427.81C200.203 426.941 200.437 425.667 200.896 423.992C201.362 422.308 201.938 420.762 202.637 419.345C203.773 417.052 205.175 415.275 206.837 414.002C208.49 412.727 210.235 412.094 212.058 412.094C213.538 412.094 214.719 412.47 215.594 413.209C216.466 413.957 216.904 414.964 216.904 416.245C216.904 416.878 216.727 417.742 216.372 418.829C216.016 419.913 215.469 421.265 214.725 422.883L208.151 437.234C208.046 437.442 207.968 437.653 207.902 437.851C207.836 438.06 207.807 438.19 207.807 438.247C207.823 438.312 207.842 438.364 207.874 438.383C207.902 438.408 207.952 438.42 208.018 438.436C208.506 438.436 209.111 438.211 209.832 437.771C210.562 437.326 211.595 436.549 212.931 435.441C214.98 433.732 216.851 431.952 218.551 430.112C220.245 428.271 221.65 426.493 222.779 424.785C223.917 423.029 224.918 421.2 225.768 419.302C225.891 419.022 225.973 418.848 226.001 418.798C226.133 418.556 226.322 418.382 226.593 418.263C226.854 418.158 227.213 418.102 227.664 418.102H228.715C229.071 418.102 229.364 418.18 229.588 418.344C229.814 418.503 229.931 418.711 229.931 418.963C229.931 419.186 229.829 419.599 229.625 420.187C229.414 420.777 229.131 421.482 228.756 422.293L220.623 440.454C218.755 444.64 217.058 447.864 215.525 450.107C213.995 452.36 212.735 453.481 211.734 453.481C211.208 453.481 210.767 453.357 210.402 453.121C210.036 452.885 209.854 452.574 209.854 452.192C209.854 451.9 210.421 450.841 211.555 449.013C212.685 447.186 213.639 445.475 214.404 443.871L219.614 433.086ZM236.21 437.212C235.91 436.857 235.699 436.521 235.567 436.205C235.44 435.878 235.378 435.544 235.378 435.189C235.378 434.263 235.649 433.486 236.188 432.853C236.726 432.219 237.434 431.861 238.3 431.774C238.048 430.861 237.717 430.193 237.318 429.774C236.921 429.349 236.397 429.14 235.755 429.14C234.559 429.14 233.426 429.882 232.33 431.365C231.243 432.843 230.699 434.437 230.699 436.14C230.699 437.068 230.9 437.786 231.31 438.298C231.709 438.807 232.28 439.065 233.007 439.065C233.577 439.065 234.144 438.902 234.722 438.569C235.306 438.239 235.793 437.786 236.21 437.212V437.212ZM240.67 435.397C240.744 435.416 240.822 435.428 240.917 435.434C241.011 435.441 241.115 435.441 241.232 435.441C241.543 435.441 242.085 435.164 242.855 434.607C244.301 433.403 245.514 432.362 246.502 431.473C247.599 430.488 248.187 429.89 248.273 429.697L249.403 427.248H253.332L248.482 437.088C248.42 437.227 248.36 437.364 248.325 437.479C248.289 437.599 248.273 437.702 248.273 437.786C248.273 437.836 248.289 437.879 248.317 437.907C248.348 437.938 248.392 437.954 248.442 437.954C249.186 437.954 250.781 436.917 253.231 434.844C255.68 432.772 258.077 430.243 260.426 427.248H264.268L259.718 436.748C259.624 436.976 259.507 437.227 259.369 437.491C259.23 437.759 259.164 437.895 259.164 437.907C259.164 438.066 259.186 438.18 259.214 438.261C259.252 438.339 259.309 438.377 259.377 438.377C259.64 438.377 260.404 437.987 261.674 437.205C262.948 436.425 264.252 435.49 265.594 434.412V434.424C266.786 433.458 267.797 432.551 268.619 431.719C269.621 430.702 270.348 429.786 270.802 428.975C270.487 428.522 270.26 428.127 270.128 427.795C269.989 427.456 269.927 427.133 269.927 426.825C269.927 426.105 270.138 425.518 270.559 425.058C270.975 424.588 271.508 424.359 272.15 424.359C272.864 424.359 273.408 424.596 273.797 425.061C274.174 425.536 274.411 426.248 274.473 427.204C274.561 427.204 274.694 427.198 274.86 427.187C275.5 427.139 275.947 427.12 276.186 427.12C277.442 427.12 278.353 427.291 278.919 427.64C279.489 427.984 279.772 428.522 279.772 429.27C279.772 429.581 279.709 429.939 279.583 430.364C279.452 430.787 279.272 431.255 279.023 431.774L276.608 436.748C276.542 436.895 276.457 437.059 276.355 437.261C276.158 437.653 276.056 437.873 276.056 437.907C276.056 438.066 276.076 438.18 276.114 438.261C276.142 438.339 276.202 438.377 276.274 438.377C276.542 438.377 277.31 437.987 278.579 437.218C279.845 436.441 281.145 435.506 282.487 434.412V434.422C283.812 433.34 285.013 432.231 286.101 431.092C287.383 429.731 288.545 428.302 289.565 426.782C289.669 425.208 289.959 424.014 290.446 423.201C290.928 422.389 291.583 421.976 292.408 421.976C292.99 421.976 293.451 422.156 293.784 422.523C294.121 422.89 294.288 423.402 294.288 424.064C294.288 424.551 294.178 425.027 293.967 425.487C293.756 425.94 293.416 426.409 292.947 426.882C293.012 428.013 293.07 428.936 293.108 429.644C293.146 430.364 293.158 430.989 293.158 431.523C293.158 433.086 293.042 434.401 292.817 435.469C292.588 436.543 292.217 437.513 291.706 438.367C292.663 437.889 293.611 437.326 294.559 436.677C295.393 436.114 296.266 435.453 297.175 434.707C297.607 432.896 298.577 431.287 300.091 429.874C302.204 427.897 304.685 426.913 307.514 426.913C308.928 426.913 310.004 427.204 310.766 427.795C311.515 428.385 311.896 429.227 311.896 430.321C311.896 432.023 310.955 433.543 309.071 434.873C307.191 436.211 304.679 437.109 301.515 437.568C301.572 438.075 301.804 438.475 302.204 438.764C302.613 439.054 303.161 439.197 303.839 439.197C305.007 439.197 306.399 438.786 308.017 437.975C309.406 437.273 310.891 436.295 312.485 435.046V435.018C313.549 434.149 314.519 433.328 315.378 432.567C316.239 431.796 316.997 431.076 317.653 430.407L322.945 415.468C323.499 413.92 324.026 412.827 324.504 412.19C324.989 411.547 325.533 411.233 326.131 411.233C326.57 411.233 326.919 411.432 327.168 411.83C327.413 412.23 327.539 412.798 327.539 413.526C327.539 415.029 327.102 416.927 326.235 419.229C325.367 421.523 323.95 424.508 321.985 428.192L319.104 436.785C319.088 436.814 319.075 436.844 319.059 436.873C318.905 437.32 318.827 437.664 318.827 437.901C318.827 438.075 318.843 438.18 318.88 438.239C318.915 438.298 318.971 438.327 319.037 438.327C319.276 438.327 320.008 437.944 321.216 437.177C322.187 436.565 323.2 435.85 324.253 435.034V435.024C325.417 434.082 326.488 433.175 327.457 432.306C328.42 431.436 329.325 430.572 330.171 429.718L335.361 414.986C335.931 413.426 336.447 412.34 336.928 411.728C337.401 411.114 337.949 410.813 338.563 410.813C338.985 410.813 339.335 410.988 339.602 411.338C339.873 411.693 340.011 412.159 340.011 412.755C340.011 414.045 339.532 416.036 338.569 418.727C337.616 421.417 336.148 424.891 334.18 429.15L326.793 449.986C326.751 450.135 326.723 450.265 326.701 450.375C326.679 450.483 326.664 450.554 326.664 450.595C326.664 450.731 326.717 450.863 326.819 450.987C326.913 451.107 327.023 451.164 327.136 451.164C327.873 451.164 328.777 449.899 329.834 447.377C330.899 444.841 331.636 441.865 332.051 438.442C333.742 437.397 335.042 436.578 335.937 435.974C336.835 435.369 337.518 434.853 337.983 434.412V438.205C337.227 438.749 336.526 439.24 335.877 439.671C335.238 440.094 334.729 440.421 334.354 440.625C334.354 444.53 333.471 447.898 331.714 450.719C329.961 453.546 328.043 454.957 325.958 454.957C325.046 454.957 324.33 454.668 323.814 454.099C323.294 453.53 323.033 452.732 323.033 451.71C323.033 451.207 323.138 450.527 323.348 449.669C323.553 448.811 323.836 447.855 324.207 446.805L327.968 435.888C327.184 436.534 326.498 437.088 325.898 437.544C325.603 437.767 325.313 437.979 325.039 438.172V438.196C323.018 439.693 321.26 440.794 319.768 441.52C318.275 442.244 317.029 442.604 316.028 442.604C315.46 442.604 315.013 442.439 314.702 442.101C314.387 441.766 314.236 441.284 314.236 440.663C314.236 440.306 314.273 439.917 314.349 439.52C314.431 439.116 314.541 438.749 314.686 438.414L315.517 436.394C314.979 436.852 314.453 437.277 313.952 437.653L313.278 438.14V438.205C311.099 439.824 309.204 440.973 307.586 441.657C305.976 442.347 304.401 442.691 302.878 442.691C300.928 442.691 299.449 442.21 298.438 441.241C297.73 440.56 297.269 439.659 297.06 438.538C295.425 439.675 293.933 440.527 292.581 441.089C291.102 441.707 289.72 442.018 288.434 442.018H288.157C287.748 442.24 287.336 442.403 286.92 442.498C286.51 442.595 286.029 442.648 285.487 442.648C284.624 442.648 283.95 442.433 283.485 442.008C283.019 441.579 282.776 440.952 282.776 440.138C282.776 439.744 282.849 439.492 282.981 439.37C283.12 439.246 283.403 439.191 283.85 439.191C284.118 439.191 284.526 439.24 285.066 439.346C285.607 439.455 286.007 439.504 286.284 439.504C287.276 439.504 288.048 438.858 288.589 437.568C289.128 436.276 289.398 434.428 289.398 432.023V431.523C288.589 432.76 287.575 433.946 286.357 435.083C285.308 436.061 284.017 437.09 282.487 438.168V438.211C280.518 439.644 278.746 440.749 277.156 441.548C275.565 442.341 274.357 442.736 273.512 442.736C272.659 442.736 272.001 442.549 271.536 442.175C271.075 441.809 270.842 441.275 270.842 440.585C270.842 439.886 271.337 438.579 272.337 436.665C272.471 436.413 272.562 436.226 272.637 436.096L274.949 431.65C275.049 431.436 275.115 431.262 275.159 431.135C275.203 430.998 275.223 430.883 275.223 430.787C275.223 430.584 275.169 430.451 275.043 430.37C274.917 430.303 274.694 430.256 274.351 430.256C274.278 430.256 274.145 430.271 273.956 430.293C273.759 430.314 273.614 430.321 273.512 430.321C272.303 432.011 270.991 433.537 269.574 434.894C268.367 436.061 267.039 437.155 265.594 438.174V438.205C263.604 439.679 261.796 440.808 260.193 441.579C258.581 442.347 257.239 442.736 256.175 442.736C255.593 442.736 255.124 442.595 254.777 442.325C254.428 442.051 254.252 441.691 254.252 441.241C254.252 440.986 254.318 440.613 254.446 440.122C254.57 439.634 254.745 439.124 254.96 438.606L256.286 435.363C254.103 437.566 251.934 439.346 249.777 440.7C247.617 442.057 245.962 442.736 244.809 442.736C244.315 442.736 243.936 442.592 243.687 442.309C243.439 442.03 243.316 441.598 243.316 441.007C243.316 440.771 243.338 440.527 243.388 440.285C243.439 440.039 243.521 439.771 243.637 439.492L244.724 436.917C244.345 437.242 243.98 437.54 243.627 437.81H243.625L243.609 437.824L243.599 437.833C243.253 438.128 242.915 438.367 242.594 438.544L242.582 438.55L242.57 438.556L242.564 438.563L242.353 438.693V438.668L242.331 438.677C241.821 438.908 241.276 439.022 240.67 439.022C240.545 439.022 240.385 439.01 240.19 438.983C239.998 438.951 239.663 438.902 239.175 438.815C238.505 440.051 237.579 441.015 236.397 441.701C235.217 442.39 233.921 442.736 232.491 442.736C230.617 442.736 229.149 442.219 228.101 441.191C227.059 440.153 226.536 438.715 226.536 436.879C226.536 433.875 227.518 431.255 229.496 429.026C231.46 426.803 233.743 425.688 236.338 425.688C237.922 425.688 239.219 426.126 240.24 427.006C241.254 427.881 241.763 428.967 241.763 430.256C241.763 430.83 241.647 431.299 241.42 431.66C241.194 432.017 240.86 432.29 240.417 432.471C240.62 432.638 240.766 432.853 240.866 433.104C240.969 433.356 241.011 433.667 241.011 434.03C241.011 434.241 240.983 434.459 240.933 434.674C240.876 434.887 240.788 435.133 240.67 435.397V435.397ZM301.382 434.537C303.279 434.269 304.821 433.797 306.02 433.104C307.215 432.414 307.812 431.7 307.812 430.954C307.812 430.643 307.705 430.399 307.492 430.212C307.281 430.02 306.997 429.926 306.638 429.926C305.787 429.926 304.821 430.37 303.759 431.262C302.689 432.154 301.899 433.24 301.382 434.537" fill="white"/>
<defs>
<linearGradient id="paint0_linear" x1="39.6645" y1="13.8681" x2="76.3984" y2="228.089" gradientUnits="userSpaceOnUse">
<stop stop-color="#E95323"/>
<stop offset="1" stop-color="#FFEE00"/>
</linearGradient>
<linearGradient id="paint1_linear" x1="39.6605" y1="13.8994" x2="76.3934" y2="228.118" gradientUnits="userSpaceOnUse">
<stop stop-color="#E95323"/>
<stop offset="1" stop-color="#FFEE00"/>
</linearGradient>
<linearGradient id="paint2_linear" x1="494.689" y1="140.164" x2="502.142" y2="194.931" gradientUnits="userSpaceOnUse">
<stop stop-color="#E95323"/>
<stop offset="1" stop-color="#FFEE00"/>
</linearGradient>
<linearGradient id="paint3_linear" x1="24.7265" y1="1.28729" x2="55.982" y2="154.342" gradientUnits="userSpaceOnUse">
<stop stop-color="#E95323"/>
<stop offset="1" stop-color="#FFEE00"/>
</linearGradient>
<linearGradient id="paint4_linear" x1="24.7224" y1="1.31867" x2="55.9765" y2="154.37" gradientUnits="userSpaceOnUse">
<stop stop-color="#E95323"/>
<stop offset="1" stop-color="#FFEE00"/>
</linearGradient>
<linearGradient id="paint5_linear" x1="502.355" y1="135.981" x2="507.027" y2="173.306" gradientUnits="userSpaceOnUse">
<stop stop-color="#E95323"/>
<stop offset="1" stop-color="#FFEE00"/>
</linearGradient>
<linearGradient id="paint6_linear" x1="4.45111" y1="106.155" x2="25.3806" y2="195.387" gradientUnits="userSpaceOnUse">
<stop stop-color="#E95323"/>
<stop offset="1" stop-color="#FFEE00"/>
</linearGradient>
<linearGradient id="paint7_linear" x1="4.44737" y1="106.182" x2="25.377" y2="195.415" gradientUnits="userSpaceOnUse">
<stop stop-color="#E95323"/>
<stop offset="1" stop-color="#FFEE00"/>
</linearGradient>
<linearGradient id="paint8_linear" x1="86.9293" y1="57.2476" x2="110.055" y2="229.757" gradientUnits="userSpaceOnUse">
<stop stop-color="#E95323"/>
<stop offset="1" stop-color="#FFEE00"/>
</linearGradient>
<linearGradient id="paint9_linear" x1="519.582" y1="159.929" x2="524.83" y2="183.331" gradientUnits="userSpaceOnUse">
<stop stop-color="#E95323"/>
<stop offset="1" stop-color="#FFEE00"/>
</linearGradient>
<linearGradient id="paint10_linear" x1="86.9251" y1="57.2792" x2="110.05" y2="229.785" gradientUnits="userSpaceOnUse">
<stop stop-color="#E95323"/>
<stop offset="1" stop-color="#FFEE00"/>
</linearGradient>
<linearGradient id="paint11_linear" x1="486.908" y1="154.528" x2="491.232" y2="195.313" gradientUnits="userSpaceOnUse">
<stop stop-color="#E95323"/>
<stop offset="1" stop-color="#FFEE00"/>
</linearGradient>
<linearGradient id="paint12_linear" x1="134.31" y1="124.329" x2="138.876" y2="165.423" gradientUnits="userSpaceOnUse">
<stop stop-color="#E95323"/>
<stop offset="1" stop-color="#FFEE00"/>
</linearGradient>
<linearGradient id="paint13_linear" x1="134.307" y1="124.358" x2="138.872" y2="165.45" gradientUnits="userSpaceOnUse">
<stop stop-color="#E95323"/>
<stop offset="1" stop-color="#FFEE00"/>
</linearGradient>
<linearGradient id="paint14_linear" x1="484.69" y1="173.374" x2="485.305" y2="182.328" gradientUnits="userSpaceOnUse">
<stop stop-color="#E95323"/>
<stop offset="1" stop-color="#FFEE00"/>
</linearGradient>
</defs>
</svg>
