<svg width="621" height="148" viewBox="0 0 621 148" fill="none" xmlns="http://www.w3.org/2000/svg">
<path fill-rule="evenodd" clip-rule="evenodd" d="M76.0016 97.7053L124.276 143.598L128.924 47.9984H107.499L107.539 91.4117L58.0189 45.7989L53.5979 140.958H74.8771L76.0016 97.7053ZM274.479 97.7053L322.752 143.598L327.4 47.9984H305.975L306.013 91.4117L256.496 45.7989L252.075 140.958H273.355L274.479 97.7053ZM197.453 44.6499L219.198 59.0053L175.537 147.316L135.926 60.1484L158.597 45.122L177.522 97.591L197.453 44.6499ZM237.351 129.183H218.685L226.207 79.8859L245.085 78.5091L237.351 129.183ZM238.12 46.594C245.607 46.594 251.716 52.6178 251.716 60.0064C251.716 67.3972 245.607 73.421 238.12 73.421C230.631 73.421 224.523 67.3972 224.523 60.0064C224.523 52.6178 230.631 46.594 238.12 46.594ZM250.485 57.7284C250.624 58.4682 250.698 59.2292 250.698 60.0064C250.698 66.8444 245.049 72.4203 238.12 72.4203C233.526 72.4203 229.493 69.9591 227.297 66.3158L250.485 57.7284ZM374.382 58.5234C356.208 61.246 342.98 74.4307 337.208 89.352C333.764 98.2462 334.967 112.497 339.891 119.77C347.682 131.273 359.584 134.129 379.959 132.426V113.435C373.459 113.282 364.698 114.323 359.719 110.378C353.474 105.429 355.374 92.3584 360.959 86.6962C365.956 81.6285 372.801 79.2761 378.101 78.326L374.382 58.5234ZM437.345 47.0759V141.153H456.241C470.099 141.153 485.988 134.47 491.498 127.486C497.836 119.453 504.234 98.0197 480.206 90.5856C507.997 72.9417 491.406 47.0759 460.158 47.0759H437.345ZM459.928 62.3393V86.4842C464.043 85.3156 469.834 83.468 471.181 74.6605C472.539 65.7664 466.109 63.1067 459.928 62.3393ZM459.928 99.6939V124.753C464.739 123.538 471.506 121.621 473.077 112.481C474.667 103.251 467.151 100.493 459.928 99.6939ZM515.693 140.47L562.018 142.29V117.461H539.891V47.3057H515.693V140.47ZM620.938 142.268L574.918 140.013V47.3057L619.413 45.5448V67.4129L597.27 67.803V84.2074L616.17 83.0669V104.935L597.27 104.705V119.514L620.938 119.487V142.268Z" fill="white"/>
<path d="M414.5 137L391.185 136.807L397.5 58.6499H416.418L414.5 137Z" fill="white"/>
<path d="M419.596 41.5854C419.596 34.1968 414.487 29.173 407 29.173C399.511 29.173 394.403 34.1968 394.403 41.5854C394.403 48.9762 399.511 54 407 54C414.487 54 419.596 48.9762 419.596 41.5854Z" fill="white"/>
<path fill-rule="evenodd" clip-rule="evenodd" d="M22.1132 0.100769C33.9333 0.100769 43.5754 9.61409 43.5754 21.2724C43.5754 32.9359 33.9333 42.4479 22.1132 42.4479C10.2957 42.4479 0.654785 32.9359 0.654785 21.2724C0.654785 9.61409 10.2957 0.100769 22.1132 0.100769ZM41.6296 17.6784C41.8493 18.8431 41.969 20.0486 41.969 21.2724C41.969 32.0665 33.0521 40.8642 22.1132 40.8642C14.8618 40.8642 8.49754 36.9867 5.0314 31.2302L41.6296 17.6784Z" fill="white"/>
<path d="M31.8204 142.403L6.58661 141.807L9.6535 50.0596L32.7528 47.4961L31.8204 142.403Z" fill="white"/>
</svg>
