<svg width="64" height="64" viewBox="0 0 64 64" fill="none" xmlns="http://www.w3.org/2000/svg">
<path d="M10.0027 27.0034V40.9998H12.0032V27.0034H10.0027ZM14.0037 27.0034V36.0021H15.9969V27.0034H14.0037Z" fill="white"/>
<path d="M24.6623 25.9995V28H8.00106C8.00106 28 7.21233 28.0105 6.45083 28.3913C5.68933 28.772 4.99657 29.4984 4.99657 30.9971V36.9987C4.99657 38.5248 5.68933 39.2238 6.45083 39.6046C7.21233 39.9853 8.00106 40.0032 8.00106 40.0032H12.9987V42.0037H8.00106C8.00106 42.0037 6.78876 42.0177 5.55022 41.3984C4.31168 40.7792 3.00342 39.4962 3.00342 36.9987V30.9971C3.00342 28.5192 4.31168 27.2241 5.55022 26.6048C6.78876 25.9856 8.00106 25.9995 8.00106 25.9995H24.6623ZM36.0021 29.004V34.9982H38.0026V29.004H36.0021ZM25.9994 29.004V34.9982H28V29.004H25.9994ZM10.0026 4.9976V8.00209H12.0031V4.9976H10.0026ZM10.0026 10.0026V12.9997H12.0031V10.0026H10.0026ZM12.0031 8.00209V10.0026H15.0002V8.00209H12.0031ZM6.99808 8.00209V10.0026H10.0026V8.00209H6.99808ZM6.99808 45.0009C5.35304 45.0009 4.00098 46.3529 4.00098 47.998C4.00098 49.643 5.35304 51.0024 6.99808 51.0024C8.64313 51.0024 10.0026 49.643 10.0026 47.998C10.0026 46.3529 8.64313 45.0009 6.99808 45.0009ZM6.99808 47.0014C7.56222 47.0014 8.00204 47.4338 8.00204 47.998C8.00204 48.5621 7.56222 49.0019 6.99808 49.0019C6.43394 49.0019 6.00151 48.5621 6.00151 47.998C6.00151 47.4338 6.43394 47.0014 6.99808 47.0014ZM56 49.9985V53.003H58.0006V49.9985H56ZM56 55.0035V58.0006H58.0006V55.0035H56ZM53.0029 53.003V55.0035H56V53.003H53.0029ZM58.0006 53.003V55.0035H60.9977V53.003H58.0006ZM55.0035 10.9992C53.3584 10.9992 51.999 12.3586 51.999 14.0037C51.999 15.6487 53.3584 17.0008 55.0035 17.0008C56.6485 17.0008 58.0006 15.6487 58.0006 14.0037C58.0006 12.3586 56.6485 10.9992 55.0035 10.9992V10.9992ZM55.0035 12.9997C55.5676 12.9997 56 13.4395 56 14.0037C56 14.5678 55.5676 15.0003 55.0035 15.0003C54.4393 15.0003 53.9995 14.5678 53.9995 14.0037C53.9995 13.4395 54.4393 12.9997 55.0035 12.9997ZM32.001 2.99707C32.001 2.99707 29.2917 2.98608 26.5531 4.35537C23.8145 5.72465 21.0018 8.514 21.0018 14.0037H23.0023C23.0023 9.49318 25.1848 7.27259 27.4463 6.14182C29.7079 5.01105 32.001 4.9976 32.001 4.9976C32.001 4.9976 34.2942 5.01106 36.5558 6.14182C38.8173 7.27259 40.9997 9.48522 40.9997 14.0037H43.0003C43.0003 8.52181 40.1875 5.72465 37.449 4.35537C34.7104 2.98608 32.001 2.99707 32.001 2.99707Z" fill="white"/>
<path d="M22.2272 10.1279C19.8737 10.4613 17.9748 10.8987 16.5874 11.4419C15.8937 11.7135 15.3277 12.0058 14.8674 12.3868C14.407 12.7678 14.0037 13.3171 14.0037 14.0035C14.0037 14.5733 14.2922 15.065 14.6385 15.4135C14.9849 15.7619 15.4063 16.0217 15.9008 16.2624C16.89 16.7439 18.189 17.1241 19.7764 17.4509C22.9513 18.1046 27.2509 18.4992 32.0011 18.4992C36.7512 18.4992 41.0509 18.1046 44.2257 17.4509C45.8131 17.1241 47.1121 16.7439 48.1013 16.2624C48.5959 16.0217 49.0173 15.7619 49.3636 15.4135C49.71 15.065 49.9985 14.5733 49.9985 14.0035C49.9985 13.3165 49.5956 12.768 49.1348 12.3868C48.6739 12.0057 48.102 11.7137 47.4074 11.4419C46.0182 10.8985 44.124 10.4612 41.7675 10.1279L41.487 12.1063C43.7469 12.4259 45.5398 12.8546 46.6839 13.3022C47.256 13.526 47.6571 13.7564 47.8577 13.9223C48.0583 14.0882 47.9979 14.114 47.9979 14.0035C47.9979 13.917 48.0528 13.8963 47.9463 14.0035C47.8397 14.1107 47.5959 14.2832 47.2302 14.4612C46.4988 14.8172 45.3087 15.1881 43.8197 15.4947C40.8417 16.1078 36.6399 16.4986 32.0011 16.4986C27.3622 16.4986 23.1605 16.1078 20.1824 15.4947C18.6934 15.1881 17.5033 14.8172 16.7719 14.4612C16.4062 14.2832 16.1624 14.1107 16.0559 14.0035C15.9493 13.8963 15.9968 13.917 15.9968 14.0035C15.9968 14.1139 15.9369 14.0879 16.1371 13.9223C16.3372 13.7567 16.7471 13.5258 17.3182 13.3022C18.4604 12.855 20.2509 12.426 22.5078 12.1063L22.2272 10.1279Z" fill="white"/>
<path d="M21.0019 17.001V19.9981C21.0019 25.4807 23.8146 28.2771 26.5532 29.6464C29.2917 31.0157 32.0011 30.9973 32.0011 30.9973C32.0011 30.9973 34.7105 31.0157 37.4491 29.6464C40.1876 28.2771 43.0003 25.4761 43.0003 19.9981V17.001H40.9998V19.9981C40.9998 24.5203 38.8174 26.7292 36.5558 27.86C34.2943 28.9907 32.0011 29.0042 32.0011 29.0042C32.0011 29.0042 29.7079 28.9907 27.4464 27.86C25.1849 26.7292 23.0024 24.5125 23.0024 19.9981V17.001H21.0019ZM19.0013 34.0018C19.0013 34.0018 17.2925 33.9888 15.5539 34.8581C13.8154 35.7274 12.0032 37.5063 12.0032 41V60.0013C12.0051 60.5509 12.4502 60.996 12.9997 60.9979H51.0025C51.5521 60.996 51.9971 60.5509 51.999 60.0013V41C51.999 37.5259 50.1868 35.7274 48.4483 34.8581C46.7097 33.9888 45.0009 34.0018 45.0009 34.0018H36.9987C36.4492 34.0037 36.0041 34.4488 36.0022 34.9984C36.0022 34.9984 36.026 35.3639 35.6109 35.8621C35.1958 36.3602 34.3012 36.9989 32.0011 36.9989C29.7011 36.9989 28.8064 36.3602 28.3913 35.8621C27.9762 35.3639 28 34.9984 28 34.9984C27.9981 34.4488 27.5531 34.0037 27.0035 34.0018H19.0013ZM19.0013 36.0023H26.195C26.195 36.0023 26.4082 36.602 26.8558 37.1392C27.6907 38.1411 29.3011 38.9994 32.0011 38.9994C34.7012 38.9994 36.3115 38.1411 37.1464 37.1392C37.5902 36.6067 37.8036 36.0023 37.8036 36.0023H45.0009C45.0009 36.0023 46.2935 36.0138 47.5551 36.6446C48.8166 37.2753 49.9985 38.4973 49.9985 41V59.0048H14.0037V41C14.0037 38.5051 15.1856 37.2753 16.4472 36.6446C17.7087 36.0138 19.0013 36.0023 19.0013 36.0023V36.0023Z" fill="white"/>
<path d="M39.3389 25.9995V28.0001H56.0001C56.0001 28.0001 56.7888 28.0106 57.5503 28.3913C58.3118 28.7721 59.0046 29.4984 59.0046 30.9972V36.9988C59.0046 38.5248 58.3118 39.2239 57.5503 39.6046C56.7888 39.9854 56.0001 40.0033 56.0001 40.0033H51.0025V42.0038H56.0001C56.0001 42.0038 57.2124 42.0178 58.451 41.3985C59.6895 40.7792 60.9978 39.4962 60.9978 36.9988V30.9972C60.9978 28.5193 59.6895 27.2241 58.451 26.6049C57.2124 25.9856 56.0001 25.9995 56.0001 25.9995H39.3389Z" fill="white"/>
<path d="M49.9984 27.0034V40.9998H51.999V27.0034H49.9984ZM45.9974 27.0034V36.0021H47.9979V27.0034H45.9974ZM19.0013 43.0003C18.8693 42.9998 18.7385 43.0254 18.6165 43.0757C18.4944 43.126 18.3836 43.1999 18.2902 43.2932C18.1969 43.3865 18.123 43.4974 18.0727 43.6194C18.0224 43.7415 17.9968 43.8723 17.9973 44.0042V51.999C17.9968 52.131 18.0224 52.2617 18.0727 52.3838C18.123 52.5058 18.1969 52.6167 18.2902 52.71C18.3836 52.8034 18.4944 52.8773 18.6165 52.9276C18.7385 52.9778 18.8693 53.0035 19.0013 53.0029H27.0034C27.1348 53.0025 27.2648 52.9761 27.3859 52.9254C27.5071 52.8747 27.6171 52.8006 27.7097 52.7074C27.8022 52.6142 27.8755 52.5036 27.9253 52.3821C27.9751 52.2605 28.0005 52.1303 28 51.999V44.0042C28.0005 43.8729 27.9751 43.7427 27.9253 43.6212C27.8755 43.4996 27.8022 43.3891 27.7097 43.2958C27.6171 43.2026 27.5071 43.1285 27.3859 43.0778C27.2648 43.0271 27.1348 43.0008 27.0034 43.0003H19.0013ZM19.9979 45.0008H25.9994V51.0024H19.9979V45.0008Z" fill="white"/>
<path d="M19.7101 43.2958L18.2927 44.7057L22.2938 48.7068C22.3867 48.8001 22.4971 48.8742 22.6188 48.9247C22.7404 48.9752 22.8708 49.0012 23.0025 49.0012C23.1342 49.0012 23.2645 48.9752 23.3862 48.9247C23.5078 48.8742 23.6182 48.8001 23.7111 48.7068L27.7048 44.7057L26.2949 43.2958L23.0025 46.5882L19.7101 43.2958ZM36.9988 43.0005C36.8674 43.001 36.7375 43.0273 36.6163 43.078C36.4951 43.1287 36.3851 43.2028 36.2925 43.296C36.2 43.3893 36.1267 43.4998 36.0769 43.6214C36.0271 43.7429 36.0017 43.8731 36.0022 44.0044V51.9992C36.0017 52.1305 36.0271 52.2607 36.0769 52.3823C36.1267 52.5038 36.2 52.6144 36.2925 52.7076C36.3851 52.8008 36.4951 52.8749 36.6163 52.9256C36.7375 52.9763 36.8674 53.0027 36.9988 53.0032H45.0009C45.1323 53.0027 45.2623 52.9763 45.3835 52.9256C45.5046 52.8749 45.6146 52.8008 45.7072 52.7076C45.7997 52.6144 45.873 52.5038 45.9228 52.3823C45.9726 52.2607 45.998 52.1305 45.9975 51.9992V44.0044C45.998 43.8731 45.9726 43.7429 45.9228 43.6214C45.873 43.4998 45.7997 43.3893 45.7072 43.296C45.6146 43.2028 45.5046 43.1287 45.3835 43.078C45.2623 43.0273 45.1323 43.001 45.0009 43.0005H36.9988ZM38.0028 45.001H44.0044V51.0026H38.0028V45.001Z" fill="white"/>
<path d="M37.7073 43.2958L36.29 44.7058L40.2911 48.7069C40.384 48.8002 40.4944 48.8742 40.616 48.9248C40.7376 48.9753 40.868 49.0013 40.9997 49.0013C41.1314 49.0013 41.2618 48.9753 41.3834 48.9248C41.505 48.8742 41.6155 48.8002 41.7084 48.7069L45.7095 44.7058L44.2921 43.2958L40.9997 46.5882L37.7073 43.2958ZM30.9971 38.0029V60.0014H32.9976V38.0029H30.9971Z" fill="white"/>
</svg>
