<svg width="64" height="64" viewBox="0 0 64 64" fill="none" xmlns="http://www.w3.org/2000/svg">
<path d="M15.9969 17.001C15.8358 17.002 15.6774 17.0419 15.5352 17.1173C15.3929 17.1927 15.2709 17.3013 15.1795 17.4339C15.0882 17.5665 15.0303 17.7192 15.0106 17.8791C14.991 18.0389 15.0102 18.2011 15.0667 18.3519L27.0625 50.353C27.134 50.5439 27.262 50.7085 27.4296 50.8246C27.5972 50.9407 27.7962 51.0028 28 51.0026H60.0012C60.1628 51.0028 60.3221 50.9638 60.4654 50.8889C60.6086 50.814 60.7316 50.7055 60.8238 50.5727C60.9159 50.4399 60.9745 50.2868 60.9945 50.1264C61.0145 49.966 60.9954 49.8031 60.9387 49.6517L48.9355 17.6506C48.8641 17.4597 48.736 17.2951 48.5684 17.179C48.4009 17.0629 48.2018 17.0008 47.998 17.001H15.9969ZM17.4437 19.0015H47.3115L58.5543 49.0021H28.694L17.4437 19.0015Z" fill="white"/>
<path d="M15.0667 17.6504L3.06354 49.6515C3.00684 49.8029 2.98768 49.9658 3.0077 50.1262C3.02772 50.2866 3.08631 50.4397 3.17848 50.5725C3.27064 50.7053 3.39362 50.8138 3.53688 50.8887C3.68014 50.9635 3.83941 51.0026 4.00106 51.0024H28.0001V49.0019H5.44794L16.9344 18.3517L15.0667 17.6504Z" fill="white"/>
<path d="M16.9417 12.6528L15.0667 17.6505L16.9343 18.3518L18.8093 13.3541L16.9417 12.6528Z" fill="white"/>
<path d="M15.0593 12.6528L13.1917 13.3541L15.0667 18.3518L16.9343 17.6505L15.0593 12.6528ZM48.9428 12.6528L47.0678 17.6505L48.9355 18.3518L50.8105 13.3541L48.9428 12.6528Z" fill="white"/>
<path d="M47.0604 12.6528L45.1928 13.3541L47.0678 18.3518L48.9355 17.6505L47.0604 12.6528ZM15.0002 19.0014V40.9998H17.0008V19.0014H15.0002Z" fill="white"/>
<path d="M16.9343 38.6523L15.0667 39.3536L19.1858 50.3529L21.0609 49.6516L16.9343 38.6523Z" fill="white"/>
<path d="M15.0666 38.6523L10.9401 49.6515L12.8151 50.3528L16.9343 39.3536L15.0666 38.6523ZM53.9995 2.99707V6.00156H56V2.99707H53.9995ZM53.9995 8.00209V10.9992H56V8.00209H53.9995ZM56 6.00156V8.00209H59.0045V6.00156H56ZM51.0024 6.00156V8.00209H53.9995V6.00156H51.0024ZM45.9974 55.0035C44.3523 55.0035 43.0003 56.3556 43.0002 58.0006C43.0002 59.6457 44.3523 60.9977 45.9974 60.9977C47.6424 60.9977 49.0018 59.6457 49.0018 58.0006C49.0018 56.3556 47.6424 55.0035 45.9974 55.0035V55.0035ZM45.9974 57.004C46.5615 57.004 47.0013 57.4365 47.0013 58.0006C47.0013 58.5648 46.5615 59.0046 45.9974 59.0046C45.4332 59.0046 45.0008 58.5648 45.0008 58.0006C45.0008 57.4365 45.4332 57.004 45.9974 57.004ZM17.9973 57.004V60.0011H19.9978V57.004H17.9973ZM17.9973 51.999V55.0035H19.9978V51.999H17.9973ZM15.0002 55.0035V57.004H17.9973V55.0035H15.0002ZM19.9978 55.0035V57.004H23.0023V55.0035H19.9978ZM5.69882 10.9992C4.05378 10.9992 2.69434 12.3586 2.69434 14.0037C2.69434 15.6487 4.05378 17.0008 5.69882 17.0008C7.34387 17.0008 8.69593 15.6487 8.69593 14.0037C8.69593 12.3586 7.34387 10.9992 5.69882 10.9992V10.9992ZM5.69882 12.9997C6.26297 12.9997 6.6954 13.4395 6.6954 14.0037C6.6954 14.5678 6.26296 15.0003 5.69882 15.0003C5.13469 15.0003 4.69487 14.5678 4.69487 14.0037C4.69487 13.4395 5.13468 12.9997 5.69882 12.9997Z" fill="white"/>
</svg>
