<svg width="64" height="64" viewBox="0 0 64 64" fill="none" xmlns="http://www.w3.org/2000/svg">
<path d="M53.6576 44.7425L46.0736 40.0449C44.8704 39.3729 44.1216 38.0993 44.1216 36.7297V34.9057C46.2016 33.3697 47.7312 31.0721 48.4416 28.4481C49.5168 27.8913 50.24 26.7649 50.24 25.5105V21.4529C50.24 20.3905 49.7216 19.4049 48.8832 18.7905V16.3841C48.8832 14.6753 48.3584 13.0561 47.4112 11.8337C44.8512 8.51207 40.9088 7.33447 38.08 7.33447C35.2512 7.33447 31.3088 8.51207 28.7488 11.8337C28.4352 12.2369 28.1728 12.6849 27.9616 13.1649C26.5728 12.6273 25.1776 12.3969 24 12.3969C21.44 12.3969 17.8816 13.4657 15.5584 16.4673C14.6944 17.5873 14.2208 19.0593 14.2208 20.6145V22.6945C13.472 23.2705 13.0048 24.1665 13.0048 25.1393V28.7617C13.0048 29.9137 13.6576 30.9505 14.6368 31.4817C15.2704 33.8049 16.6336 35.8401 18.4704 37.2225V38.7777C18.4704 39.9553 17.8304 41.0433 16.7424 41.6513L10.016 45.8177C7.95517 47.0977 6.71997 49.3057 6.71997 51.7249V55.3857C6.71997 56.0961 7.29597 56.6657 7.99997 56.6657H40C40.128 56.6657 40.2432 56.6465 40.3584 56.6145H56C56.704 56.6145 57.28 56.0385 57.28 55.3345V51.2321C57.28 48.5697 55.9232 46.1441 53.6576 44.7425ZM18.88 51.2321V54.1057H9.27997V51.7249C9.27997 50.1953 10.0608 48.8001 11.3664 47.9937L18.0416 43.8593C19.8848 42.8289 21.0304 40.8833 21.0304 38.7777V36.5505C21.0304 36.1153 20.8064 35.7121 20.4416 35.4753C18.6944 34.3553 17.4272 32.4545 16.9728 30.2721C16.8704 29.7729 16.4864 29.3825 15.9872 29.2801C15.744 29.2289 15.5648 29.0113 15.5648 28.7617V25.1393C15.5648 24.8705 15.7568 24.7041 15.9232 24.6465C16.4352 24.4673 16.7808 23.9873 16.7808 23.4433V20.6145C16.7808 19.6225 17.0688 18.7073 17.5872 18.0289C19.3408 15.7633 22.048 14.9569 24 14.9569C24.9856 14.9569 26.1632 15.1617 27.3152 15.6609C27.296 15.8977 27.2768 16.1409 27.2768 16.3841V18.7905C26.4384 19.4049 25.92 20.3905 25.92 21.4529V25.5105C25.92 26.7649 26.6432 27.8913 27.7184 28.4481C28.384 30.9249 29.7984 33.1073 31.7056 34.6369C31.8208 34.7265 31.9232 34.8225 32.0384 34.9057V36.7297C32.0384 37.6641 31.6864 38.5473 31.0656 39.2385C30.7776 39.5649 30.4384 39.8529 30.0352 40.0769L22.5024 44.7425C20.2368 46.1441 18.88 48.5697 18.88 51.2321ZM54.72 54.0545H21.44V51.2321C21.44 49.4657 22.3424 47.8529 23.8528 46.9185L31.3344 42.2849C33.3504 41.1585 34.5984 39.0273 34.5984 36.7297V34.2337C34.5984 33.7985 34.3808 33.3953 34.0096 33.1585C32.0192 31.8785 30.5792 29.7217 30.0608 27.2321C29.9584 26.7329 29.5744 26.3425 29.0752 26.2401C28.7296 26.1633 28.48 25.8561 28.48 25.5105V21.4529C28.48 21.0945 28.736 20.8449 28.9856 20.7553C29.4976 20.5761 29.8368 20.0961 29.8368 19.5521V16.3841C29.8368 15.2385 30.1696 14.1761 30.7712 13.3953C32.768 10.8161 35.8592 9.89447 38.08 9.89447C40.3008 9.89447 43.392 10.8161 45.3888 13.3953C45.9904 14.1761 46.3232 15.2385 46.3232 16.3841V19.5521C46.3232 20.0961 46.6624 20.5761 47.1744 20.7553C47.424 20.8449 47.68 21.0945 47.68 21.4529V25.5105C47.68 25.8561 47.4304 26.1633 47.0848 26.2401C46.5856 26.3425 46.2016 26.7329 46.0992 27.2321C45.5808 29.7217 44.1408 31.8785 42.1504 33.1585C41.7792 33.3953 41.5616 33.7985 41.5616 34.2337V36.7297C41.5616 39.0273 42.8096 41.1585 44.7744 42.2529L52.3136 46.9185C53.8176 47.8529 54.72 49.4657 54.72 51.2321V54.0545V54.0545Z" fill="white"/>
</svg>
