<svg width="64" height="64" viewBox="0 0 64 64" fill="none" xmlns="http://www.w3.org/2000/svg">
<path d="M28 6.99805V10.0025H30.0005V6.99805H28Z" fill="white"/>
<path d="M28.0001 12.0032V15.0003H30.0006V12.0032H28.0001ZM30.0006 10.0026V12.0032H32.9977V10.0026H30.0006ZM25.003 10.0026V12.0032H28.0001V10.0026H25.003ZM12.9998 49.0019C11.3547 49.0019 10.0027 50.354 10.0027 51.999C10.0027 53.6441 11.3547 55.0035 12.9998 55.0035C14.6448 55.0035 15.9969 53.6441 15.9969 51.999C15.9969 50.354 14.6448 49.0019 12.9998 49.0019ZM12.9998 51.0024C13.5639 51.0024 14.0037 51.4349 14.0037 51.999C14.0037 52.5632 13.5639 53.003 12.9998 53.003C12.4357 53.003 12.0032 52.5632 12.0032 51.999C12.0032 51.4349 12.4357 51.0024 12.9998 51.0024ZM49.002 43.0003V45.9974H51.0025V43.0003H49.002ZM49.002 47.998V51.0024H51.0025V47.998H49.002ZM45.9975 45.9974V47.998H49.002V45.9974H45.9975ZM51.0025 45.9974V47.998H53.9996V45.9974H51.0025ZM40.0033 2.99707C38.3582 2.99707 36.9988 4.35652 36.9988 6.00156C36.9988 7.6466 38.3582 8.99866 40.0033 8.99866C41.6483 8.99867 43.0004 7.6466 43.0004 6.00156C43.0004 4.35652 41.6483 2.99707 40.0033 2.99707V2.99707ZM40.0033 4.9976C40.5674 4.9976 40.9999 5.43742 40.9999 6.00156C40.9999 6.5657 40.5674 6.99813 40.0033 6.99813C39.4391 6.99813 38.9993 6.5657 38.9993 6.00156C38.9993 5.43742 39.4391 4.9976 40.0033 4.9976ZM17.5028 10.357C16.2213 11.0969 15.94 12.1977 15.9895 13.0219C16.039 13.8461 16.4029 14.454 16.4029 14.454L42.4024 59.4918C42.4024 59.4918 42.7469 60.1072 43.4359 60.5622C44.125 61.0171 45.1965 61.3366 46.4995 60.5845C47.7968 59.8355 48.0623 58.7438 48.0128 57.9196C47.9633 57.0953 47.5994 56.4874 47.5994 56.4874L21.5999 11.4569C21.5999 11.4569 21.2554 10.8341 20.5664 10.3791C19.8773 9.92415 18.7974 9.60956 17.5028 10.357ZM19.4665 12.0474C19.7104 12.2085 19.8651 12.4535 19.8651 12.4535L45.8646 57.4913C45.8646 57.4913 46.0021 57.7457 46.0196 58.0375C46.037 58.3293 45.9493 58.5992 45.5029 58.8569C45.054 59.1161 44.7798 59.0549 44.5358 58.894C44.2919 58.7329 44.1372 58.488 44.1372 58.488L18.1377 13.4574C18.1377 13.4574 18.0002 13.1956 17.9827 12.9038C17.9651 12.6119 18.022 12.3674 18.4994 12.0917C18.9248 11.8461 19.2225 11.8864 19.4665 12.0474Z" fill="white"/>
<path d="M46.4995 10.3572C45.2165 9.61644 44.125 9.92441 43.436 10.3794C42.7469 10.8343 42.4025 11.4571 42.4025 11.4571L31.1375 30.9679L32.8649 31.9718L44.1373 12.4537C44.1373 12.4537 44.2919 12.2088 44.5359 12.0477C44.7799 11.8866 45.0599 11.8362 45.5029 12.092C45.9551 12.3531 46.0372 12.6122 46.0197 12.904C46.0023 13.1958 45.8647 13.4577 45.8647 13.4577L33.4407 34.9689L35.1755 35.9729L47.5994 14.4542C47.5994 14.4542 47.9634 13.8463 48.0128 13.0221C48.0623 12.1979 47.7982 11.107 46.4995 10.3572ZM28.8269 34.9689L16.4029 56.4875C16.4029 56.4875 16.039 57.0954 15.9896 57.9197C15.9401 58.7439 16.2122 59.8394 17.5029 60.5846C18.7927 61.3293 19.8774 61.0174 20.5664 60.5623C21.2555 60.1073 21.5999 59.4919 21.5999 59.4919L32.8649 39.9739L31.1375 38.97L19.8651 58.4881C19.8651 58.4881 19.7105 58.733 19.4665 58.8941C19.2225 59.0552 18.9484 59.1164 18.4994 58.8571C18.0789 58.6143 17.9652 58.3295 17.9827 58.0376C18.0002 57.7458 18.1377 57.4914 18.1377 57.4914L30.5543 35.9729L28.8269 34.9689Z" fill="white"/>
<path d="M45.9975 14.0039V15.9971H49.9985V30.0008H36.9988V32.0013H51.0025C51.1339 32.0008 51.2638 31.9745 51.385 31.9238C51.5062 31.8731 51.6162 31.799 51.7088 31.7058C51.8013 31.6125 51.8746 31.502 51.9244 31.3804C51.9742 31.2589 51.9996 31.1287 51.9991 30.9974V15.0005C51.9981 14.7365 51.8928 14.4835 51.7062 14.2968C51.5195 14.1101 51.2665 14.0048 51.0025 14.0039H45.9975Z" fill="white"/>
<path d="M51.0025 17.9973V19.9978H58.3845L57.1074 22.552C57.0382 22.6907 57.0022 22.8436 57.0022 22.9986C57.0022 23.1536 57.0382 23.3065 57.1074 23.4452L58.8865 27.0034L57.1074 30.5541C57.0382 30.6928 57.0022 30.8457 57.0022 31.0007C57.0022 31.1557 57.0382 31.3086 57.1074 31.4473L58.3845 34.0015H44.0043V30.997H42.0038V34.9981C42.0033 35.1295 42.0286 35.2596 42.0785 35.3812C42.1283 35.5027 42.2015 35.6133 42.2941 35.7065C42.3866 35.7998 42.4966 35.8738 42.6178 35.9245C42.739 35.9753 42.869 36.0016 43.0003 36.0021H60.0012C60.1715 36.0018 60.3389 35.958 60.4875 35.875C60.6362 35.7919 60.7612 35.6722 60.8506 35.5273C60.9401 35.3824 60.9911 35.2171 60.9987 35.0469C61.0064 34.8768 60.9705 34.7075 60.8944 34.5552L59.1227 30.997L60.8944 27.4463C60.9636 27.3076 60.9997 27.1547 60.9997 26.9997C60.9997 26.8446 60.9636 26.6918 60.8944 26.5531L59.1227 23.0023L60.8944 19.4442C60.9705 19.2918 61.0064 19.1225 60.9987 18.9524C60.9911 18.7823 60.9401 18.6169 60.8506 18.472C60.7612 18.3271 60.6362 18.2075 60.4875 18.1244C60.3389 18.0413 60.1715 17.9975 60.0012 17.9973H51.0025ZM12.9038 14.0036C12.6568 14.0283 12.4277 14.144 12.2613 14.3282C12.0948 14.5124 12.0028 14.7519 12.0032 15.0002V30.997C12.0027 31.1284 12.0281 31.2586 12.0779 31.3801C12.1277 31.5017 12.201 31.6122 12.2935 31.7055C12.386 31.7987 12.496 31.8728 12.6172 31.9235C12.7384 31.9742 12.8684 32.0005 12.9998 32.001H27.0035V30.0005H14.0037V15.9967H17.9974V14.0036H12.9998C12.9678 14.0021 12.9358 14.0021 12.9038 14.0036H12.9038Z" fill="white"/>
<path d="M4.001 17.9976C3.8307 17.9978 3.6633 18.0416 3.51464 18.1247C3.36598 18.2077 3.24101 18.3274 3.15155 18.4723C3.06209 18.6172 3.01111 18.7826 3.00345 18.9527C2.99579 19.1228 3.0317 19.2921 3.10777 19.4444L4.87946 23.0026L3.10777 26.5533C3.03855 26.692 3.00251 26.8449 3.00251 27C3.00251 27.155 3.03855 27.3079 3.10777 27.4466L4.87946 30.9973L3.10777 34.5555C3.0317 34.7078 2.99579 34.8771 3.00345 35.0472C3.01111 35.2173 3.06209 35.3827 3.15155 35.5276C3.24101 35.6725 3.36598 35.7922 3.51464 35.8752C3.6633 35.9583 3.8307 36.0021 4.001 36.0023H21.0018C21.1332 36.0019 21.2632 35.9755 21.3844 35.9248C21.5055 35.8741 21.6155 35.8 21.7081 35.7068C21.8006 35.6136 21.8739 35.503 21.9237 35.3815C21.9735 35.2599 21.9989 35.1297 21.9984 34.9984V30.9973H19.9979V34.0018H5.61767L6.89476 31.4476C6.96398 31.3089 7.00002 31.156 7.00002 31.001C7.00002 30.846 6.96398 30.6931 6.89476 30.5544L5.11569 27.0036L6.89476 23.4455C6.96398 23.3068 7.00002 23.1539 7.00002 22.9989C7.00002 22.8439 6.96398 22.691 6.89476 22.5523L5.61767 19.9981H12.9997V17.9976H4.001Z" fill="white"/>
</svg>
